<svg width="216" height="50" viewBox="0 0 216 50" fill="none" xmlns="http://www.w3.org/2000/svg">
<g clip-path="url(#clip0_1_2)">
<mask id="mask0_1_2" style="mask-type:luminance" maskUnits="userSpaceOnUse" x="0" y="0" width="216" height="50">
<path d="M215.547 0H0V50H215.547V0Z" fill="white"/>
</mask>
<g mask="url(#mask0_1_2)">
<path d="M-16.5805 27.6667L-15.1988 25.8889C-13.8171 24.1111 -11.0537 20.5556 -8.29026 15.8889C-5.52684 11.2222 -2.76342 5.44444 0 5.66667C2.76342 5.88889 5.52684 12.1111 8.29026 15.8889C11.0537 19.6667 13.8171 21 16.5805 21.8889C19.3439 22.7778 22.1074 23.2222 24.8708 25.6667C27.6342 28.1111 30.3976 32.5556 33.1611 31C35.9245 29.4444 38.6879 21.8889 41.4513 21.8889C44.2147 21.8889 46.9782 29.4444 49.7416 33C52.505 36.5556 55.2684 36.1111 58.0319 32.1111C60.7953 28.1111 63.5587 20.5556 66.3221 18.1111C69.0855 15.6667 71.849 18.3333 74.6124 21.4444C77.3758 24.5556 80.1392 28.1111 82.9026 27.4444C85.6661 26.7778 88.4295 21.8889 91.1929 21.8889C93.9563 21.8889 96.7198 26.7778 99.4832 26.3333C102.247 25.8889 105.01 20.1111 107.773 18.1111C110.537 16.1111 113.3 17.8889 116.064 21.2222C118.827 24.5556 121.591 29.4444 124.354 31.8889C127.117 34.3333 129.881 34.3333 132.644 34.1111C135.408 33.8889 138.171 33.4444 140.935 32.3333C143.698 31.2222 146.461 29.4444 149.225 29.8889C151.988 30.3333 154.752 33 157.515 30.3333C160.278 27.6667 163.042 19.6667 165.805 19.6667C168.569 19.6667 171.332 27.6667 174.096 32.1111C176.859 36.5556 179.622 37.4444 182.386 32.7778C185.149 28.1111 187.913 17.8889 190.676 13.2222C193.44 8.55556 196.203 9.44445 198.966 13.4444C201.73 17.4444 204.493 24.5556 207.257 23.4444C210.02 22.3333 212.783 13 215.547 9.66667C218.31 6.33333 221.074 9 222.455 10.3333L223.837 11.6667V50H222.455C221.074 50 218.31 50 215.547 50C212.783 50 210.02 50 207.257 50C204.493 50 201.73 50 198.966 50C196.203 50 193.44 50 190.676 50C187.913 50 185.149 50 182.386 50C179.622 50 176.859 50 174.096 50C171.332 50 168.569 50 165.805 50C163.042 50 160.278 50 157.515 50C154.752 50 151.988 50 149.225 50C146.461 50 143.698 50 140.935 50C138.171 50 135.408 50 132.644 50C129.881 50 127.117 50 124.354 50C121.591 50 118.827 50 116.064 50C113.3 50 110.537 50 107.773 50C105.01 50 102.247 50 99.4832 50C96.7198 50 93.9563 50 91.1929 50C88.4295 50 85.6661 50 82.9026 50C80.1392 50 77.3758 50 74.6124 50C71.849 50 69.0855 50 66.3221 50C63.5587 50 60.7953 50 58.0319 50C55.2684 50 52.505 50 49.7416 50C46.9782 50 44.2147 50 41.4513 50C38.6879 50 35.9245 50 33.1611 50C30.3976 50 27.6342 50 24.8708 50C22.1074 50 19.3439 50 16.5805 50C13.8171 50 11.0537 50 8.29026 50C5.52684 50 2.76342 50 0 50C-2.76342 50 -5.52684 50 -8.29026 50C-11.0537 50 -13.8171 50 -15.1988 50H-16.5805V27.6667Z" fill="white" fill-opacity="0.498039"/>
</g>
</g>
<defs>
<clipPath id="clip0_1_2">
<rect width="215.547" height="50" fill="white"/>
</clipPath>
</defs>
</svg>
