<svg width="16" height="10" viewBox="0 0 16 10" fill="none" xmlns="http://www.w3.org/2000/svg">
<path d="M0.50293 7.35059L7.19141 0.512695C7.41992 0.266602 7.69238 0.152344 8 0.152344C8.30762 0.152344 8.58887 0.275391 8.81738 0.512695L15.4971 7.35059C15.6904 7.54395 15.7959 7.79004 15.7959 8.08008C15.7959 8.66895 15.3389 9.12598 14.7588 9.12598C14.4775 9.12598 14.2051 9.02051 14.0029 8.80957L8.00879 2.64844L1.99707 8.80957C1.80371 9.01172 1.53125 9.12598 1.24121 9.12598C0.661133 9.12598 0.204102 8.66895 0.204102 8.08008C0.204102 7.79883 0.30957 7.54395 0.50293 7.35059Z" fill="url(#paint0_linear_11_49)"/>
<defs>
<linearGradient id="paint0_linear_11_49" x1="-4.94439" y1="-0.521547" x2="23.3584" y2="0.692941" gradientUnits="userSpaceOnUse">
<stop offset="0.0729167" stop-color="#FF7F00"/>
<stop offset="1" stop-color="#FFFF00"/>
</linearGradient>
</defs>
</svg>
