<svg width="152" height="40" viewBox="0 0 152 40" fill="none" xmlns="http://www.w3.org/2000/svg">
<g clip-path="url(#clip0_287_2357)">
<path d="M33.6108 31.18C29.8708 36.71 23.6608 40 17.0008 40C10.3408 40 4.12083 36.7 0.390827 31.18C-0.299173 30.16 -0.0391729 28.76 0.990827 28.07C2.01083 27.38 3.41083 27.64 4.10083 28.67C7.00083 32.96 11.8308 35.52 17.0008 35.52C22.1708 35.52 27.0008 32.96 29.9008 28.67C30.5908 27.64 31.9808 27.37 33.0108 28.07C34.0408 28.76 34.3108 30.16 33.6108 31.18Z" fill="url(#paint0_linear_287_2357)"/>
<path d="M26.3803 11.79C24.6303 9.77 22.2303 8.33 19.5103 7.77C19.2703 7.72 19.0303 7.68 18.7903 7.65C18.4103 7.6 18.0303 7.56 17.6503 7.54C17.5803 7.54 17.5103 7.54 17.4303 7.53C17.3103 7.53 17.1703 7.52 17.0003 7.52C14.4903 7.52 12.1603 8.26 10.2103 9.54C10.2103 9.54 10.2003 9.54 10.1903 9.55L4.57031 0V19.17C4.57031 19.24 4.57031 19.31 4.58031 19.39C4.58031 19.58 4.57031 19.76 4.57031 19.95C4.57031 26.81 10.1403 32.38 17.0003 32.38C17.1703 32.38 17.3403 32.38 17.5003 32.37C24.1303 32.11 29.4303 26.65 29.4303 19.95C29.4303 16.82 28.2803 13.97 26.3703 11.79H26.3803ZM24.6103 23.51C24.6103 23.51 24.5903 23.58 24.5803 23.61C24.5403 23.73 24.4903 23.85 24.4303 23.97C23.1103 26.35 20.7203 27.92 18.0503 28.2C18.0203 28.2 18.0003 28.2 17.9703 28.2C17.9003 28.21 17.8203 28.22 17.7503 28.22C17.6703 28.22 17.5803 28.23 17.5003 28.23C17.4203 28.23 17.3303 28.23 17.2503 28.23H17.1803C17.0803 28.23 16.9803 28.23 16.8703 28.23C14.3303 28.14 12.0803 26.9 10.6303 25.02C10.5903 24.97 10.5503 24.92 10.5103 24.86C10.4803 24.82 10.4503 24.79 10.4303 24.75C10.4103 24.72 10.3803 24.68 10.3603 24.65C9.44031 23.31 8.90031 21.69 8.90031 19.95C8.90031 19.71 8.91031 19.48 8.93031 19.24C9.08031 17.49 9.77031 15.9 10.8403 14.63C11.2903 14.1 11.8003 13.62 12.3703 13.22C12.9503 12.8 13.5903 12.46 14.2703 12.2C14.4803 12.12 14.6903 12.05 14.9003 11.99C15.3203 11.87 15.7603 11.78 16.2103 11.73C16.5403 11.69 16.8603 11.67 17.2003 11.67C19.7203 11.67 22.0903 12.82 23.6403 14.75C23.7203 14.84 23.7903 14.94 23.8603 15.03C23.8903 15.07 23.9103 15.1 23.9403 15.14C24.1203 15.39 24.2903 15.66 24.4403 15.94C24.4703 16 24.5003 16.05 24.5303 16.12C25.1203 17.26 25.4503 18.55 25.4503 19.92C25.4503 21.21 25.1503 22.43 24.6303 23.52L24.6103 23.51Z" fill="url(#paint1_linear_287_2357)"/>
<path d="M24.5703 23.61C24.1703 27.56 21.5303 30.86 17.9403 32.22C17.6403 32.33 17.3203 32.38 17.0003 32.38C10.1403 32.38 4.57031 26.81 4.57031 19.95C4.57031 19.76 4.57031 19.57 4.58031 19.39C4.57031 19.32 4.57031 19.24 4.57031 19.17V19C6.02031 19.08 7.47031 19.16 8.91031 19.25C8.89031 19.48 8.88031 19.72 8.88031 19.96C8.88031 24.43 12.4303 28.08 16.8603 28.24C16.9603 28.24 17.0603 28.24 17.1703 28.24H17.2403C17.3203 28.24 17.4003 28.24 17.4903 28.24C17.5703 28.24 17.6503 28.24 17.7403 28.23C17.8103 28.23 17.8903 28.22 17.9603 28.21C17.9903 28.21 18.0103 28.21 18.0403 28.21C20.7103 27.91 23.1503 26.17 24.5703 23.63V23.61Z" fill="url(#paint2_linear_287_2357)"/>
<path d="M26.3495 11.7895C25.4295 12.7795 24.5095 13.7595 23.5895 14.7495C22.0295 12.8195 19.6695 11.6695 17.1395 11.6695C16.8095 11.6695 16.4795 11.6895 16.1595 11.7295C15.9495 11.7495 15.7495 11.7895 15.5495 11.8295C15.5295 11.8295 15.5195 11.8295 15.4995 11.8295C15.3595 11.8495 15.2195 11.8795 15.0695 11.9195C14.9095 11.9595 14.7395 11.9995 14.5795 11.9995H14.5195C12.6795 11.9995 11.0695 11.0195 10.1895 9.53953C12.1395 8.25953 14.4695 7.51953 16.9795 7.51953C17.1395 7.51953 17.2795 7.51953 17.4095 7.51953C17.4895 7.51953 17.5595 7.51953 17.6295 7.52953C18.0195 7.55953 18.2695 7.60953 18.7695 7.63953C19.0095 7.66953 19.2495 7.70953 19.4895 7.75953C22.2095 8.31953 24.5995 9.75953 26.3595 11.7795L26.3495 11.7895Z" fill="url(#paint3_linear_287_2357)"/>
<path d="M20.1402 18.78L16.2002 16.51C15.2902 15.99 14.1602 16.64 14.1602 17.69V22.24C14.1602 23.29 15.2902 23.94 16.2002 23.42L20.1402 21.15C21.0502 20.63 21.0502 19.32 20.1402 18.79V18.78Z" fill="url(#paint4_linear_287_2357)"/>
<path d="M42.9006 11.1301H46.4006V17.3601H46.4506C46.7806 16.9101 47.2206 16.5501 47.7806 16.2801C48.3406 16.0101 48.9906 15.8701 49.7406 15.8701C50.3506 15.8701 50.9806 15.9901 51.6306 16.2201C52.2806 16.4501 52.8806 16.8101 53.4206 17.3001C53.9606 17.7901 54.4006 18.4201 54.7506 19.1801C55.1006 19.9401 55.2706 20.8601 55.2706 21.9301C55.2706 22.8001 55.1206 23.6101 54.8106 24.3601C54.5106 25.1101 54.0806 25.7501 53.5306 26.2801C52.9806 26.8201 52.3206 27.2401 51.5606 27.5401C50.8006 27.8401 49.9706 28.0001 49.0606 28.0001C48.1506 28.0001 47.3106 27.8601 46.5506 27.5701C45.8006 27.2801 45.1506 26.8701 44.6106 26.3301C44.0706 25.7901 43.6506 25.1401 43.3506 24.3801C43.0506 23.6201 42.8906 22.7601 42.8906 21.8101V11.1201L42.9006 11.1301ZM49.0606 24.7301C49.8506 24.7301 50.5006 24.4701 50.9906 23.9601C51.4806 23.4501 51.7306 22.7701 51.7306 21.9301C51.7306 21.0901 51.4806 20.4101 50.9906 19.9001C50.5006 19.3901 49.8606 19.1301 49.0606 19.1301C48.2606 19.1301 47.6206 19.3901 47.1406 19.9001C46.6506 20.4101 46.4006 21.0901 46.4006 21.9301C46.4006 22.7701 46.6506 23.4501 47.1406 23.9601C47.6306 24.4701 48.2706 24.7301 49.0606 24.7301Z" fill="#333333"/>
<path d="M59.2107 15.1196C58.5707 15.1196 58.0407 14.9096 57.6107 14.4796C57.1807 14.0496 56.9707 13.5196 56.9707 12.8796C56.9707 12.2396 57.1807 11.7096 57.6107 11.2796C58.0407 10.8496 58.5707 10.6396 59.2107 10.6396C59.8507 10.6396 60.3807 10.8496 60.8107 11.2796C61.2407 11.7096 61.4507 12.2396 61.4507 12.8796C61.4507 13.5196 61.2407 14.0496 60.8107 14.4796C60.3807 14.9096 59.8507 15.1196 59.2107 15.1196ZM57.4607 27.6996V16.1696H60.9607V27.6996H57.4607Z" fill="#333333"/>
<path d="M71.5094 27.6999V21.7299C71.5094 20.8099 71.3094 20.1499 70.8994 19.7499C70.4894 19.3499 69.9694 19.1399 69.3094 19.1399C68.6494 19.1399 68.1294 19.3399 67.7194 19.7499C67.3094 20.1599 67.1094 20.8199 67.1094 21.7299V27.6999H63.6094V21.7299C63.6094 20.7599 63.7494 19.9199 64.0194 19.1899C64.2894 18.4599 64.6794 17.8499 65.1794 17.3599C65.6794 16.8699 66.2794 16.4999 66.9794 16.2499C67.6794 15.9999 68.4594 15.8799 69.3094 15.8799C70.1594 15.8799 70.9394 15.9999 71.6394 16.2399C72.3394 16.4799 72.9394 16.8499 73.4394 17.3399C73.9394 17.8299 74.3194 18.4399 74.5894 19.1699C74.8594 19.8999 74.9994 20.7599 74.9994 21.7399V27.7099H71.4994L71.5094 27.6999Z" fill="#333333"/>
<path d="M85.6903 26.3204H85.6403C85.3003 26.7904 84.8503 27.1504 84.2903 27.4204C83.7303 27.6804 83.0803 27.8204 82.3503 27.8204C81.7403 27.8204 81.1103 27.7204 80.4603 27.5104C79.8103 27.3004 79.2103 26.9604 78.6703 26.4904C78.1303 26.0204 77.6903 25.4204 77.3403 24.6704C76.9903 23.9204 76.8203 23.0104 76.8203 21.9404C76.8203 21.0704 76.9703 20.2604 77.2803 19.5104C77.5803 18.7604 78.0103 18.1204 78.5603 17.5804C79.1103 17.0404 79.7703 16.6204 80.5203 16.3204C81.2703 16.0204 82.1103 15.8604 83.0303 15.8604C83.9503 15.8604 84.7603 16.0004 85.5303 16.2904C86.2903 16.5804 86.9403 16.9904 87.4803 17.5304C88.0203 18.0704 88.4403 18.7204 88.7403 19.4804C89.0403 20.2404 89.2003 21.1004 89.2003 22.0504V26.8104C89.2003 27.9104 89.0403 28.8504 88.7103 29.6204C88.3803 30.3904 87.9403 31.0204 87.3903 31.5104C86.8403 32.0004 86.1903 32.3604 85.4503 32.5804C84.7103 32.8104 83.9203 32.9203 83.0803 32.9203C81.6003 32.9203 80.3303 32.5904 79.2803 31.9304C78.2303 31.2704 77.5103 30.2304 77.1603 28.8204H80.7103C80.8803 29.1804 81.1703 29.4504 81.5703 29.6204C81.9703 29.8004 82.4703 29.8904 83.0603 29.8904C83.9103 29.8904 84.5703 29.6804 85.0203 29.2504C85.4703 28.8204 85.7003 28.0504 85.7003 26.9304V26.3204H85.6903ZM85.6903 21.9304C85.6903 21.0904 85.4403 20.4104 84.9503 19.9004C84.4603 19.3904 83.8203 19.1304 83.0203 19.1304C82.2203 19.1304 81.5803 19.3904 81.1003 19.9004C80.6103 20.4104 80.3603 21.0904 80.3603 21.9304C80.3603 22.7704 80.6103 23.4204 81.1003 23.8704C81.5903 24.3204 82.2303 24.5504 83.0203 24.5504C83.8103 24.5504 84.4603 24.3204 84.9503 23.8704C85.4403 23.4204 85.6903 22.7704 85.6903 21.9304Z" fill="#333333"/>
<path d="M94.6495 22.9204V22.9704C94.8095 23.6104 95.1095 24.0904 95.5595 24.4104C96.0095 24.7304 96.5595 24.8904 97.2195 24.8904C97.7195 24.8904 98.1495 24.8304 98.5295 24.7004C98.8995 24.5804 99.1995 24.3604 99.4195 24.0504H103.04C102.67 25.2504 101.97 26.2104 100.94 26.9304C99.9095 27.6504 98.6795 28.0104 97.2295 28.0104C96.3095 28.0104 95.4795 27.8604 94.7195 27.5504C93.9695 27.2504 93.3095 26.8304 92.7595 26.2904C92.2095 25.7504 91.7795 25.1104 91.4795 24.3704C91.1795 23.6204 91.0195 22.8104 91.0195 21.9404C91.0195 21.0704 91.1695 20.2604 91.4795 19.5104C91.7795 18.7604 92.2095 18.1204 92.7595 17.5804C93.3095 17.0404 93.9695 16.6204 94.7195 16.3204C95.4695 16.0204 96.3095 15.8604 97.2295 15.8604C98.1495 15.8604 98.9595 16.0104 99.7195 16.3204C100.47 16.6204 101.12 17.0404 101.67 17.5804C102.21 18.1204 102.63 18.7604 102.93 19.5104C103.22 20.2604 103.37 21.0704 103.37 21.9404V22.9204H94.6595H94.6495ZM97.2195 19.0004C96.6095 19.0004 96.0895 19.1404 95.6595 19.4204C95.2195 19.7004 94.9095 20.1104 94.7295 20.6604V20.7104H99.7695V20.6604C99.5695 20.1204 99.2495 19.7004 98.7995 19.4204C98.3595 19.1404 97.8295 19.0004 97.2195 19.0004Z" fill="#333333"/>
<path d="M113.391 20.7004C113.191 20.2204 112.871 19.8404 112.451 19.5604C112.021 19.2804 111.511 19.1404 110.921 19.1404C110.131 19.1404 109.481 19.4004 108.991 19.9104C108.501 20.4204 108.261 21.1004 108.261 21.9404C108.261 22.7804 108.501 23.4604 108.991 23.9704C109.481 24.4804 110.121 24.7404 110.921 24.7404C111.511 24.7404 112.021 24.6004 112.451 24.3204C112.881 24.0404 113.191 23.6604 113.391 23.1804H116.941C116.821 23.9004 116.581 24.5504 116.241 25.1404C115.901 25.7304 115.471 26.2404 114.951 26.6704C114.431 27.1004 113.831 27.4304 113.141 27.6604C112.451 27.8904 111.721 28.0104 110.921 28.0104C110.001 28.0104 109.171 27.8604 108.411 27.5504C107.651 27.2504 107.001 26.8304 106.451 26.2904C105.901 25.7504 105.471 25.1104 105.171 24.3704C104.871 23.6204 104.711 22.8104 104.711 21.9404C104.711 21.0704 104.861 20.2604 105.171 19.5104C105.471 18.7604 105.901 18.1204 106.451 17.5804C107.001 17.0404 107.661 16.6204 108.411 16.3204C109.161 16.0204 110.001 15.8604 110.921 15.8604C111.711 15.8604 112.451 15.9804 113.141 16.2104C113.821 16.4404 114.431 16.7704 114.951 17.2004C115.471 17.6304 115.901 18.1404 116.241 18.7304C116.581 19.3204 116.821 19.9804 116.941 20.6904H113.391V20.7004Z" fill="#333333"/>
<path d="M119.08 27.6999V11.1299H122.58V27.6999H119.08Z" fill="#333333"/>
<path d="M133.13 16.1702H136.63V22.1402C136.63 23.1102 136.49 23.9502 136.22 24.6802C135.95 25.4102 135.56 26.0202 135.07 26.5102C134.57 27.0002 133.97 27.3702 133.27 27.6202C132.57 27.8702 131.79 27.9902 130.94 27.9902C130.09 27.9902 129.31 27.8702 128.61 27.6302C127.91 27.3902 127.31 27.0202 126.81 26.5302C126.31 26.0402 125.93 25.4302 125.66 24.7002C125.39 23.9702 125.25 23.1102 125.25 22.1302V16.1602H128.75V22.1302C128.75 23.0502 128.95 23.7102 129.36 24.1102C129.76 24.5202 130.29 24.7202 130.95 24.7202C131.61 24.7202 132.13 24.5202 132.54 24.1102C132.94 23.7102 133.15 23.0402 133.15 22.1302V16.1602L133.13 16.1702Z" fill="#333333"/>
<path d="M138.92 11.1301H142.42V17.3601H142.47C142.8 16.9101 143.24 16.5501 143.8 16.2801C144.36 16.0101 145.01 15.8701 145.76 15.8701C146.37 15.8701 147 15.9901 147.65 16.2201C148.3 16.4501 148.9 16.8101 149.44 17.3001C149.98 17.7901 150.42 18.4201 150.77 19.1801C151.12 19.9401 151.3 20.8601 151.3 21.9301C151.3 22.8001 151.15 23.6101 150.84 24.3601C150.54 25.1101 150.11 25.7501 149.56 26.2801C149.01 26.8201 148.35 27.2401 147.59 27.5401C146.83 27.8401 145.99 28.0001 145.09 28.0001C144.19 28.0001 143.34 27.8601 142.58 27.5701C141.82 27.2801 141.18 26.8701 140.64 26.3301C140.1 25.7901 139.68 25.1401 139.38 24.3801C139.08 23.6201 138.92 22.7601 138.92 21.8101V11.1201V11.1301ZM145.08 24.7301C145.87 24.7301 146.52 24.4701 147.01 23.9601C147.5 23.4501 147.75 22.7701 147.75 21.9301C147.75 21.0901 147.51 20.4101 147.01 19.9001C146.52 19.3901 145.88 19.1301 145.08 19.1301C144.28 19.1301 143.65 19.3901 143.16 19.9001C142.67 20.4101 142.42 21.0901 142.42 21.9301C142.42 22.7701 142.66 23.4501 143.16 23.9601C143.65 24.4701 144.29 24.7301 145.08 24.7301Z" fill="#333333"/>
</g>
<defs>
<linearGradient id="paint0_linear_287_2357" x1="-1.33917" y1="30.86" x2="38.2708" y2="35.55" gradientUnits="userSpaceOnUse">
<stop stop-color="#FF0059"/>
<stop offset="0.11" stop-color="#FF144C"/>
<stop offset="0.4" stop-color="#FF472C"/>
<stop offset="0.66" stop-color="#FF6C14"/>
<stop offset="0.87" stop-color="#FF8305"/>
<stop offset="1" stop-color="#FF8B00"/>
</linearGradient>
<linearGradient id="paint1_linear_287_2357" x1="2.80031" y1="3.44" x2="27.8003" y2="32.51" gradientUnits="userSpaceOnUse">
<stop stop-color="#FF0059"/>
<stop offset="0.11" stop-color="#FF144C"/>
<stop offset="0.4" stop-color="#FF472C"/>
<stop offset="0.66" stop-color="#FF6C14"/>
<stop offset="0.87" stop-color="#FF8305"/>
<stop offset="1" stop-color="#FF8B00"/>
</linearGradient>
<linearGradient id="paint2_linear_287_2357" x1="10.5503" y1="23.94" x2="29.1503" y2="32.45" gradientUnits="userSpaceOnUse">
<stop stop-color="#FF00AB" stop-opacity="0"/>
<stop offset="0.01" stop-color="#FD00A9" stop-opacity="0.01"/>
<stop offset="0.2" stop-color="#DD0087" stop-opacity="0.2"/>
<stop offset="0.39" stop-color="#C4006D" stop-opacity="0.39"/>
<stop offset="0.58" stop-color="#B2005A" stop-opacity="0.58"/>
<stop offset="0.78" stop-color="#A7004F" stop-opacity="0.78"/>
<stop offset="1" stop-color="#A4004B"/>
</linearGradient>
<linearGradient id="paint3_linear_287_2357" x1="9.91945" y1="11.1295" x2="28.5795" y2="11.1295" gradientUnits="userSpaceOnUse">
<stop stop-color="#A4004B"/>
<stop offset="0.16" stop-color="#A70449" stop-opacity="0.79"/>
<stop offset="0.31" stop-color="#B20F44" stop-opacity="0.59"/>
<stop offset="0.45" stop-color="#C3223A" stop-opacity="0.39"/>
<stop offset="0.59" stop-color="#DC3C2D" stop-opacity="0.21"/>
<stop offset="0.73" stop-color="#FB5E1C" stop-opacity="0.02"/>
<stop offset="0.75" stop-color="#FF621A" stop-opacity="0"/>
</linearGradient>
<linearGradient id="paint4_linear_287_2357" x1="12.5302" y1="16.56" x2="18.8502" y2="22.34" gradientUnits="userSpaceOnUse">
<stop stop-color="#FF0059"/>
<stop offset="0.11" stop-color="#FF144C"/>
<stop offset="0.4" stop-color="#FF472C"/>
<stop offset="0.66" stop-color="#FF6C14"/>
<stop offset="0.87" stop-color="#FF8305"/>
<stop offset="1" stop-color="#FF8B00"/>
</linearGradient>
<clipPath id="clip0_287_2357">
<rect width="151.29" height="40" fill="white"/>
</clipPath>
</defs>
</svg>
