<svg width="152" height="40" viewBox="0 0 152 40" fill="none" xmlns="http://www.w3.org/2000/svg">
<path d="M33.611 31.1754C29.8727 36.7019 23.6609 39.9999 16.9983 39.9999C10.3356 39.9999 4.12385 36.7004 0.385576 31.1754C-0.308827 30.1512 -0.0395376 28.7579 0.986181 28.0665C2.01039 27.3721 3.40373 27.6414 4.0951 28.6671C6.99979 32.9591 11.8228 35.5218 16.9983 35.5218C22.1738 35.5218 26.9968 32.9591 29.9015 28.6671C30.5928 27.6414 31.9862 27.3721 33.0104 28.0665C34.0376 28.7594 34.3054 30.1527 33.611 31.1754Z" fill="url(#paint0_linear_1_5748)"/>
<path d="M26.3752 11.7927C24.6218 9.7761 22.2255 8.33435 19.5084 7.77761C19.2709 7.72769 19.0303 7.68684 18.7898 7.65356C18.4146 7.59909 18.0303 7.56581 17.646 7.54766C17.5765 7.5416 17.5054 7.53858 17.4252 7.53555C17.3011 7.52799 17.1604 7.52496 16.9985 7.52496C14.4932 7.52496 12.1604 8.26627 10.2073 9.54463C10.2013 9.54917 10.1967 9.5522 10.1907 9.55522L4.57192 0.00605273L4.56738 0V19.174C4.56738 19.2436 4.57192 19.3177 4.581 19.3949C4.57192 19.5809 4.56738 19.767 4.56738 19.9576C4.56738 26.8215 10.1362 32.3888 16.9985 32.3888C17.1665 32.3888 17.3344 32.3858 17.5008 32.3782C24.1317 32.1165 29.4312 26.6551 29.4312 19.9576C29.4297 16.8306 28.2784 13.9758 26.3752 11.7927ZM24.6052 23.5083C24.5961 23.5431 24.5855 23.5764 24.5749 23.6112C24.5749 23.6112 24.5749 23.6112 24.5719 23.6142C24.5341 23.7322 24.4842 23.8517 24.4191 23.9667C23.0999 26.351 20.7066 27.9183 18.0379 28.1952C18.0106 28.1982 17.9834 28.2012 17.9562 28.2012C17.8821 28.2118 17.8079 28.2179 17.7323 28.2209C17.6476 28.2284 17.5659 28.2345 17.4842 28.2345C17.404 28.239 17.3178 28.2421 17.2361 28.2421H17.1695C17.0681 28.2421 16.9653 28.239 16.8639 28.2345C14.3283 28.1437 12.0787 26.9062 10.6203 25.0257C10.5795 24.9743 10.5386 24.9213 10.5008 24.8684C10.4721 24.8321 10.4448 24.7942 10.4176 24.7564C10.3934 24.7231 10.3692 24.6884 10.3465 24.6551C9.42366 23.3192 8.88206 21.6989 8.88206 19.9561C8.88206 19.7186 8.89265 19.4826 8.91231 19.2481C9.05755 17.5008 9.75043 15.9062 10.8185 14.6354C11.2648 14.1014 11.7777 13.6248 12.3435 13.2224C12.9274 12.8048 13.5659 12.4599 14.2436 12.2012C14.4509 12.1241 14.6627 12.0529 14.8775 11.9909C15.3011 11.8684 15.7353 11.7791 16.1831 11.7292C16.5084 11.6884 16.8336 11.6687 17.1695 11.6687C19.6945 11.6687 22.0575 12.82 23.6143 14.7489C23.6899 14.8427 23.764 14.9365 23.8352 15.0333C23.8624 15.0696 23.8896 15.1059 23.9153 15.1437C24.0969 15.3979 24.2633 15.6641 24.4191 15.941C24.4509 15.9985 24.4796 16.056 24.5053 16.1165C25.0923 17.2542 25.4237 18.5446 25.4237 19.9122C25.4221 21.1997 25.1286 22.4191 24.6052 23.5083Z" fill="url(#paint1_linear_1_5748)"/>
<path d="M24.5704 23.6142C24.1665 27.5673 21.528 30.8638 17.9395 32.2224C17.6415 32.3358 17.3223 32.3873 17.0031 32.3873C17.0016 32.3873 17.0001 32.3873 16.9985 32.3873C10.1347 32.3873 4.56738 26.8185 4.56738 19.9561C4.56738 19.7655 4.57041 19.5794 4.581 19.3933C4.57041 19.3192 4.56738 19.2436 4.56738 19.1725V19C6.01519 19.0832 7.46299 19.1649 8.9108 19.2481C8.89113 19.4826 8.88054 19.7201 8.88054 19.9561C8.88054 24.4221 12.4343 28.0772 16.8639 28.2375C16.9653 28.2405 17.0681 28.2436 17.1695 28.2436H17.2376C17.3193 28.2436 17.401 28.2405 17.4857 28.2375C17.5674 28.2375 17.6491 28.2315 17.7338 28.2239C17.8079 28.2209 17.8836 28.2133 17.9577 28.2042C17.9849 28.2042 18.0122 28.2012 18.0394 28.1982C20.7081 27.8941 23.1544 26.1543 24.5704 23.6142Z" fill="url(#paint2_linear_1_5748)"/>
<path d="M26.3539 11.7864C25.4341 12.7728 24.5143 13.7592 23.5945 14.7455C22.0377 12.8151 19.6746 11.6608 17.1451 11.6608C16.8108 11.6608 16.484 11.6805 16.1603 11.7213C15.9545 11.7455 15.7503 11.7773 15.5491 11.8181C15.5339 11.8197 15.5158 11.8227 15.4991 11.8242C15.3584 11.8469 15.2162 11.8772 15.0725 11.9165C14.9106 11.9604 14.7457 11.9936 14.5778 11.9967C14.5566 11.9967 14.5355 11.9967 14.5143 11.9967C12.6731 11.9967 11.0619 11.0118 10.1875 9.53676C12.1391 8.2584 14.4719 7.51709 16.9787 7.51709C17.1421 7.51709 17.2813 7.5186 17.4038 7.52617C17.484 7.53071 17.5566 7.53222 17.6262 7.53979C18.0135 7.56853 18.2616 7.61996 18.7684 7.64719C19.0105 7.68048 19.2495 7.72132 19.487 7.76973C22.2041 8.32798 24.6005 9.76974 26.3539 11.7864Z" fill="url(#paint3_linear_1_5748)"/>
<path d="M20.1356 18.7809L16.1976 16.5071C15.2899 15.9837 14.1553 16.6387 14.1553 17.6856V22.2333C14.1553 23.2817 15.2899 23.9368 16.1976 23.4118L20.1356 21.138C21.0433 20.6145 21.0433 19.3044 20.1356 18.7809Z" fill="url(#paint4_linear_1_5748)"/>
<path d="M42.8965 11.1333H46.3972V17.3633H46.4441C46.7709 16.9124 47.2142 16.5509 47.7739 16.2785C48.3337 16.0062 48.9873 15.8701 49.7346 15.8701C50.3413 15.8701 50.9706 15.9866 51.6242 16.2195C52.2777 16.4525 52.8723 16.8141 53.4093 17.3042C53.9464 17.7944 54.3897 18.4207 54.7392 19.1832C55.0886 19.9457 55.2641 20.864 55.2641 21.9366C55.2641 22.808 55.1128 23.6174 54.8087 24.3633C54.5047 25.1106 54.078 25.7521 53.5258 26.2876C52.9736 26.8247 52.3155 27.2437 51.5546 27.5478C50.7921 27.8519 49.96 28.0032 49.0584 28.0032C48.1401 28.0032 47.305 27.8595 46.55 27.572C45.7951 27.2846 45.1506 26.8716 44.6136 26.336C44.0765 25.799 43.6575 25.1499 43.3534 24.3875C43.0508 23.625 42.898 22.7702 42.898 21.8201V11.1333H42.8965ZM49.0569 24.7369C49.8496 24.7369 50.4926 24.4797 50.9827 23.9669C51.4729 23.454 51.718 22.7763 51.718 21.9366C51.718 21.097 51.4729 20.4192 50.9827 19.9064C50.4926 19.3935 49.8511 19.1363 49.0569 19.1363C48.2626 19.1363 47.6211 19.3935 47.1325 19.9064C46.6423 20.4192 46.3972 21.097 46.3972 21.9366C46.3972 22.7763 46.6423 23.454 47.1325 23.9669C47.6227 24.4812 48.2641 24.7369 49.0569 24.7369Z" fill="white"/>
<path d="M59.2083 15.1242C58.5699 15.1242 58.0374 14.9108 57.6092 14.4827C57.1811 14.0546 56.9678 13.522 56.9678 12.8836C56.9678 12.2452 57.1811 11.7127 57.6092 11.2845C58.0374 10.8564 58.5699 10.6431 59.2083 10.6431C59.8467 10.6431 60.3793 10.8564 60.8074 11.2845C61.2355 11.7127 61.4489 12.2452 61.4489 12.8836C61.4489 13.522 61.2355 14.0546 60.8074 14.4827C60.3778 14.9093 59.8452 15.1242 59.2083 15.1242ZM57.4579 27.7006V16.1726H60.9587V27.7006H57.4579Z" fill="white"/>
<path d="M71.5062 27.7V21.7257C71.5062 20.8074 71.3035 20.1463 70.8995 19.7423C70.4956 19.3384 69.9661 19.1357 69.3126 19.1357C68.659 19.1357 68.1295 19.3384 67.7256 19.7423C67.3201 20.1478 67.1189 20.8074 67.1189 21.7257V27.7H63.6182V21.7257C63.6182 20.7605 63.7543 19.9133 64.0266 19.1826C64.2989 18.4519 64.6832 17.8407 65.1825 17.3505C65.6802 16.8604 66.2793 16.4912 66.9797 16.2416C67.6802 15.9935 68.4578 15.8679 69.3126 15.8679C70.1673 15.8679 70.9465 15.989 71.6454 16.2295C72.3458 16.4716 72.9434 16.8362 73.4427 17.3263C73.9404 17.8165 74.3247 18.4277 74.597 19.1584C74.8693 19.8891 75.0054 20.7454 75.0054 21.7257V27.7H71.5062Z" fill="white"/>
<path d="M85.694 26.3233H85.6471C85.3052 26.7892 84.8544 27.1554 84.2931 27.4201C83.7333 27.6849 83.0874 27.8165 82.3566 27.8165C81.75 27.8165 81.1191 27.7121 80.4671 27.5018C79.8135 27.2915 79.219 26.9542 78.6819 26.4867C78.1448 26.0207 77.7016 25.4125 77.3521 24.6667C77.0026 23.9194 76.8271 23.0101 76.8271 21.936C76.8271 21.0646 76.9784 20.2552 77.2825 19.5094C77.5866 18.762 78.0132 18.1206 78.5654 17.5835C79.1176 17.0464 79.7712 16.6274 80.5261 16.3233C81.281 16.0192 82.1161 15.8679 83.0344 15.8679C83.9361 15.8679 84.7681 16.0116 85.5306 16.2991C86.2931 16.5865 86.9421 16.9995 87.4792 17.5351C88.0163 18.0722 88.4353 18.7212 88.7394 19.4837C89.0435 20.2461 89.1948 21.1024 89.1948 22.051V26.8119C89.1948 27.9163 89.0314 28.8543 88.7046 29.6243C88.3778 30.3944 87.9376 31.0237 87.3869 31.5139C86.8347 32.0041 86.1887 32.3611 85.4504 32.588C84.7122 32.8135 83.9225 32.9269 83.0813 32.9269C81.6032 32.9269 80.3355 32.5956 79.278 31.9345C78.2205 31.2734 77.5125 30.234 77.1539 28.8195H80.7016C80.8725 29.1765 81.16 29.4458 81.5654 29.6243C81.9693 29.8029 82.4671 29.8921 83.0586 29.8921C83.9134 29.8921 84.5669 29.6773 85.0193 29.2507C85.4701 28.8225 85.6955 28.0495 85.6955 26.9284V26.3233H85.694ZM85.694 21.936C85.694 21.0964 85.4489 20.4186 84.9588 19.9057C84.4686 19.3929 83.8271 19.1357 83.0329 19.1357C82.2386 19.1357 81.5972 19.3929 81.1085 19.9057C80.6199 20.4186 80.3733 21.0964 80.3733 21.936C80.3733 22.7756 80.6184 23.4216 81.1085 23.8725C81.5987 24.3233 82.2402 24.5487 83.0329 24.5487C83.8256 24.5487 84.4686 24.3233 84.9588 23.8725C85.4489 23.4231 85.694 22.7771 85.694 21.936Z" fill="white"/>
<path d="M94.6531 22.9168V22.9637C94.8089 23.6021 95.1115 24.0802 95.5638 24.3994C96.0146 24.7186 96.5668 24.8774 97.2204 24.8774C97.7181 24.8774 98.1538 24.8154 98.5275 24.6914C98.9012 24.5673 99.1962 24.3494 99.414 24.0378H103.031C102.658 25.236 101.957 26.1966 100.931 26.9198C99.9042 27.6429 98.6682 28.0045 97.2219 28.0045C96.3036 28.0045 95.467 27.8532 94.7136 27.5491C93.9587 27.2466 93.3051 26.826 92.7529 26.2889C92.2007 25.7519 91.7726 25.1104 91.47 24.3646C91.1659 23.6172 91.0146 22.8094 91.0146 21.9379C91.0146 21.0665 91.1659 20.2572 91.47 19.5113C91.7741 18.7655 92.2007 18.1225 92.7529 17.5855C93.3051 17.0484 93.9587 16.6293 94.7136 16.3252C95.4685 16.0212 96.3036 15.8699 97.2219 15.8699C98.1236 15.8699 98.9526 16.0212 99.7075 16.3252C100.462 16.6278 101.111 17.0484 101.656 17.5855C102.201 18.1225 102.62 18.764 102.916 19.5113C103.211 20.2587 103.36 21.0665 103.36 21.9379V22.9183H94.6531V22.9168ZM97.2204 18.997C96.6137 18.997 96.0918 19.1377 95.6576 19.4175C95.2219 19.6974 94.9103 20.1104 94.7242 20.6535V20.7004H99.765V20.6535C99.5623 20.1089 99.2401 19.6974 98.7968 19.4175C98.352 19.1377 97.8271 18.997 97.2204 18.997Z" fill="white"/>
<path d="M113.391 20.7C113.188 20.2174 112.874 19.8361 112.446 19.5563C112.018 19.2764 111.508 19.1357 110.918 19.1357C110.125 19.1357 109.482 19.3929 108.993 19.9057C108.505 20.4186 108.258 21.0964 108.258 21.936C108.258 22.7756 108.503 23.4534 108.993 23.9662C109.483 24.4791 110.125 24.7363 110.918 24.7363C111.509 24.7363 112.018 24.5956 112.446 24.3157C112.874 24.0358 113.188 23.6546 113.391 23.172H116.939C116.815 23.8876 116.58 24.5411 116.238 25.1327C115.896 25.7242 115.464 26.234 114.943 26.6607C114.421 27.0888 113.819 27.4186 113.136 27.6531C112.45 27.8861 111.712 28.0026 110.919 28.0026C110.001 28.0026 109.166 27.8513 108.411 27.5472C107.656 27.2446 107.002 26.824 106.45 26.287C105.898 25.7499 105.47 25.1085 105.167 24.3626C104.865 23.6153 104.712 22.8074 104.712 21.936C104.712 21.0646 104.863 20.2552 105.167 19.5094C105.471 18.762 105.898 18.1206 106.45 17.5835C107.002 17.0464 107.656 16.6274 108.411 16.3233C109.166 16.0192 110.001 15.8679 110.919 15.8679C111.712 15.8679 112.452 15.9844 113.136 16.2174C113.819 16.4504 114.423 16.7817 114.943 17.2098C115.464 17.638 115.896 18.1478 116.238 18.7378C116.58 19.3293 116.813 19.9829 116.939 20.6985H113.391V20.7Z" fill="white"/>
<path d="M119.084 27.7006V11.1333H122.585V27.7006H119.084Z" fill="white"/>
<path d="M133.133 16.1743H136.633V22.1486C136.633 23.1138 136.497 23.961 136.225 24.6917C135.953 25.4224 135.567 26.0336 135.071 26.5238C134.573 27.0139 133.974 27.3831 133.273 27.6327C132.573 27.8808 131.795 28.0064 130.939 28.0064C130.083 28.0064 129.305 27.8854 128.606 27.6448C127.907 27.4043 127.307 27.0382 126.809 26.548C126.311 26.0578 125.925 25.4481 125.655 24.7159C125.382 23.9852 125.246 23.1289 125.246 22.1486V16.1743H128.747V22.1486C128.747 23.0669 128.948 23.728 129.354 24.132C129.757 24.5374 130.287 24.7386 130.94 24.7386C131.594 24.7386 132.122 24.5374 132.527 24.132C132.931 23.728 133.134 23.0669 133.134 22.1486V16.1743H133.133Z" fill="white"/>
<path d="M138.919 11.1333H142.42V17.3633H142.467C142.793 16.9124 143.237 16.5509 143.796 16.2785C144.356 16.0062 145.01 15.8701 145.757 15.8701C146.364 15.8701 146.995 15.9866 147.647 16.2195C148.299 16.4525 148.895 16.8141 149.432 17.3042C149.969 17.7944 150.412 18.4207 150.762 19.1832C151.111 19.9457 151.287 20.864 151.287 21.9366C151.287 22.808 151.135 23.6174 150.831 24.3633C150.527 25.1106 150.099 25.7521 149.548 26.2876C148.996 26.8247 148.338 27.2437 147.577 27.5478C146.815 27.8519 145.982 28.0032 145.081 28.0032C144.163 28.0032 143.326 27.8595 142.573 27.572C141.818 27.2846 141.173 26.8716 140.636 26.336C140.099 25.799 139.68 25.1499 139.376 24.3875C139.072 23.625 138.92 22.7702 138.92 21.8201V11.1333H138.919ZM145.079 24.7369C145.872 24.7369 146.515 24.4797 147.004 23.9669C147.494 23.454 147.739 22.7763 147.739 21.9366C147.739 21.097 147.494 20.4192 147.004 19.9064C146.513 19.3935 145.872 19.1363 145.079 19.1363C144.287 19.1363 143.644 19.3935 143.155 19.9064C142.665 20.4192 142.42 21.097 142.42 21.9366C142.42 22.7763 142.665 23.454 143.155 23.9669C143.645 24.4812 144.287 24.7369 145.079 24.7369Z" fill="white"/>
<defs>
<linearGradient id="paint0_linear_1_5748" x1="-1.33777" y1="30.8584" x2="38.2726" y2="35.5491" gradientUnits="userSpaceOnUse">
<stop offset="0.0027933" stop-color="#FF0059"/>
<stop offset="0.1064" stop-color="#FF144C"/>
<stop offset="0.4024" stop-color="#FF472C"/>
<stop offset="0.6607" stop-color="#FF6C14"/>
<stop offset="0.8686" stop-color="#FF8305"/>
<stop offset="1" stop-color="#FF8B00"/>
</linearGradient>
<linearGradient id="paint1_linear_1_5748" x1="2.79917" y1="3.44366" x2="27.7962" y2="32.5099" gradientUnits="userSpaceOnUse">
<stop offset="0.0027933" stop-color="#FF0059"/>
<stop offset="0.1064" stop-color="#FF144C"/>
<stop offset="0.4024" stop-color="#FF472C"/>
<stop offset="0.6607" stop-color="#FF6C14"/>
<stop offset="0.8686" stop-color="#FF8305"/>
<stop offset="1" stop-color="#FF8B00"/>
</linearGradient>
<linearGradient id="paint2_linear_1_5748" x1="10.5512" y1="23.9428" x2="29.1537" y2="32.4448" gradientUnits="userSpaceOnUse">
<stop offset="0.0027933" stop-color="#FF00AB" stop-opacity="0"/>
<stop offset="0.0147" stop-color="#FD00A9" stop-opacity="0.0119"/>
<stop offset="0.2" stop-color="#DD0087" stop-opacity="0.1978"/>
<stop offset="0.3897" stop-color="#C4006D" stop-opacity="0.388"/>
<stop offset="0.5835" stop-color="#B2005A" stop-opacity="0.5824"/>
<stop offset="0.7836" stop-color="#A7004F" stop-opacity="0.783"/>
<stop offset="1" stop-color="#A4004B"/>
</linearGradient>
<linearGradient id="paint3_linear_1_5748" x1="9.92322" y1="11.131" x2="28.5803" y2="11.131" gradientUnits="userSpaceOnUse">
<stop stop-color="#A4004B"/>
<stop offset="0.1603" stop-color="#A70449" stop-opacity="0.7851"/>
<stop offset="0.3085" stop-color="#B20F44" stop-opacity="0.5864"/>
<stop offset="0.452" stop-color="#C3223A" stop-opacity="0.394"/>
<stop offset="0.5925" stop-color="#DC3C2D" stop-opacity="0.2055"/>
<stop offset="0.7298" stop-color="#FB5E1C" stop-opacity="0.0214"/>
<stop offset="0.7458" stop-color="#FF621A" stop-opacity="0"/>
</linearGradient>
<linearGradient id="paint4_linear_1_5748" x1="12.5283" y1="16.5638" x2="18.8501" y2="22.3437" gradientUnits="userSpaceOnUse">
<stop offset="0.0027933" stop-color="#FF0059"/>
<stop offset="0.1064" stop-color="#FF144C"/>
<stop offset="0.4024" stop-color="#FF472C"/>
<stop offset="0.6607" stop-color="#FF6C14"/>
<stop offset="0.8686" stop-color="#FF8305"/>
<stop offset="1" stop-color="#FF8B00"/>
</linearGradient>
</defs>
</svg>
