<svg width="117" height="28" viewBox="0 0 117 28" fill="none" xmlns="http://www.w3.org/2000/svg">
<path d="M23.5278 21.8231C20.911 25.6917 16.5627 28.0003 11.8988 28.0003C7.23498 28.0003 2.88671 25.6906 0.269904 21.8231C-0.216179 21.1062 -0.0276764 20.1308 0.690329 19.6469C1.40728 19.1608 2.38262 19.3493 2.86658 20.0673C4.89987 23.0717 8.27598 24.8656 11.8988 24.8656C15.5217 24.8656 18.8978 23.0717 20.9311 20.0673C21.4151 19.3493 22.3904 19.1608 23.1074 19.6469C23.8264 20.1319 24.0139 21.1072 23.5278 21.8231Z" fill="white"/>
<path d="M18.4625 8.25495C17.2351 6.84329 15.5577 5.83406 13.6557 5.44435C13.4894 5.4094 13.321 5.38081 13.1527 5.35751C12.89 5.31939 12.621 5.29609 12.3521 5.28338C12.3033 5.27914 12.2536 5.27702 12.1974 5.2749C12.1106 5.26961 12.0121 5.26749 11.8988 5.26749C10.1451 5.26749 8.51211 5.78641 7.14493 6.68127C7.1407 6.68444 7.13752 6.68656 7.13328 6.68868L3.20014 0.00423693L3.19696 0V13.4218C3.19696 13.4705 3.20014 13.5224 3.20649 13.5764C3.20014 13.7067 3.19696 13.837 3.19696 13.9704C3.19696 18.7751 7.09516 22.6722 11.8988 22.6722C12.0164 22.6722 12.1339 22.6701 12.2504 22.6648C16.892 22.4816 20.6017 18.6586 20.6017 13.9704C20.6006 11.7814 19.7947 9.78309 18.4625 8.25495ZM17.2235 16.4559C17.2171 16.4802 17.2097 16.5035 17.2023 16.5279C17.2023 16.5279 17.2023 16.5279 17.2002 16.53C17.1737 16.6126 17.1388 16.6963 17.0932 16.7768C16.1698 18.4458 14.4944 19.5429 12.6263 19.7367C12.6073 19.7388 12.5882 19.7409 12.5692 19.7409C12.5173 19.7483 12.4654 19.7526 12.4124 19.7547C12.3531 19.76 12.2959 19.7642 12.2387 19.7642C12.1826 19.7674 12.1223 19.7695 12.0651 19.7695H12.0185C11.9475 19.7695 11.8755 19.7674 11.8046 19.7642C10.0297 19.7007 8.45492 18.8344 7.43404 17.5181C7.40544 17.4821 7.37685 17.445 7.35038 17.4079C7.33026 17.3825 7.31119 17.356 7.29213 17.3296C7.27519 17.3063 7.25824 17.2819 7.24236 17.2586C6.59636 16.3235 6.21724 15.1893 6.21724 13.9693C6.21724 13.8031 6.22466 13.6379 6.23842 13.4737C6.34009 12.2506 6.82511 11.1344 7.57277 10.2448C7.88517 9.87099 8.24418 9.5374 8.64025 9.25571C9.04902 8.96342 9.49592 8.72197 9.97036 8.54088C10.1154 8.48687 10.2637 8.4371 10.4141 8.39368C10.7106 8.3079 11.0145 8.24542 11.328 8.21047C11.5557 8.18188 11.7834 8.16811 12.0185 8.16811C13.786 8.16811 15.4401 8.97401 16.5298 10.3242C16.5828 10.3899 16.6347 10.4556 16.6844 10.5233C16.7035 10.5488 16.7226 10.5742 16.7406 10.6006C16.8677 10.7786 16.9841 10.9649 17.0932 11.1587C17.1155 11.199 17.1356 11.2392 17.1536 11.2816C17.5645 12.078 17.7964 12.9813 17.7964 13.9386C17.7953 14.8398 17.5899 15.6934 17.2235 16.4559Z" fill="white"/>
<path d="M17.1991 16.5298C16.9164 19.297 15.0695 21.6045 12.5575 22.5555C12.3489 22.6349 12.1254 22.6709 11.902 22.6709C11.9009 22.6709 11.8999 22.6709 11.8988 22.6709C7.0941 22.6709 3.19696 18.7727 3.19696 13.9691C3.19696 13.8357 3.19908 13.7054 3.20649 13.5751C3.19908 13.5233 3.19696 13.4703 3.19696 13.4205V13.2998C4.21043 13.358 5.2239 13.4152 6.23736 13.4735C6.2236 13.6376 6.21618 13.8039 6.21618 13.9691C6.21618 17.0953 8.70379 19.6538 11.8046 19.7661C11.8755 19.7682 11.9475 19.7703 12.0185 19.7703H12.0661C12.1233 19.7703 12.1805 19.7682 12.2398 19.7661C12.297 19.7661 12.3542 19.7619 12.4135 19.7566C12.4654 19.7544 12.5183 19.7491 12.5702 19.7428C12.5893 19.7428 12.6083 19.7407 12.6274 19.7386C14.4955 19.5257 16.2079 18.3078 17.1991 16.5298Z" fill="white"/>
<path d="M18.4478 8.25023C17.8039 8.94071 17.16 9.63118 16.5161 10.3216C15.4264 8.97036 13.7722 8.16234 12.0016 8.16234C11.7675 8.16234 11.5388 8.17611 11.3122 8.2047C11.1682 8.22164 11.0252 8.24388 10.8843 8.27247C10.8737 8.27353 10.861 8.27565 10.8494 8.27671C10.7509 8.29259 10.6514 8.31377 10.5508 8.34131C10.4374 8.37202 10.322 8.39531 10.2045 8.39743C10.1896 8.39743 10.1748 8.39743 10.16 8.39743C8.87117 8.39743 7.74333 7.70802 7.13123 6.67549C8.49734 5.78064 10.1303 5.26172 11.8851 5.26172C11.9995 5.26172 12.0969 5.26278 12.1827 5.26807C12.2388 5.27125 12.2896 5.27231 12.3384 5.27761C12.6095 5.29773 12.7831 5.33373 13.1379 5.35279C13.3073 5.37609 13.4747 5.40468 13.6409 5.43857C15.5429 5.82934 17.2204 6.83858 18.4478 8.25023Z" fill="white"/>
<path d="M14.0952 13.1464L11.3387 11.5547C10.7033 11.1882 9.909 11.6468 9.909 12.3796V15.563C9.909 16.2969 10.7033 16.7554 11.3387 16.388L14.0952 14.7963C14.7306 14.4299 14.7306 13.5128 14.0952 13.1464Z" fill="white"/>
<path d="M31.0255 8.83105H33.8023V13.7726H33.8395C34.0987 13.415 34.4503 13.1282 34.8943 12.9122C35.3383 12.6962 35.8567 12.5882 36.4495 12.5882C36.9307 12.5882 37.4299 12.6806 37.9483 12.8654C38.4666 13.0502 38.9382 13.337 39.3642 13.7258C39.7902 14.1146 40.1418 14.6114 40.419 15.2162C40.6962 15.821 40.8354 16.5494 40.8354 17.4002C40.8354 18.0914 40.7154 18.7334 40.4742 19.325C40.233 19.9178 39.8946 20.4266 39.4566 20.8513C39.0186 21.2773 38.4966 21.6097 37.8931 21.8509C37.2883 22.0921 36.6283 22.2121 35.9131 22.2121C35.1847 22.2121 34.5223 22.0981 33.9235 21.8701C33.3247 21.6421 32.8135 21.3145 32.3875 20.8897C31.9615 20.4638 31.6291 19.949 31.3879 19.3442C31.1479 18.7394 31.0267 18.0614 31.0267 17.3078V8.83105H31.0255ZM35.9119 19.6214C36.5407 19.6214 37.0507 19.4174 37.4395 19.0106C37.8283 18.6038 38.0227 18.0662 38.0227 17.4002C38.0227 16.7342 37.8283 16.1966 37.4395 15.7898C37.0507 15.383 36.5419 15.179 35.9119 15.179C35.2819 15.179 34.7731 15.383 34.3855 15.7898C33.9967 16.1966 33.8023 16.7342 33.8023 17.4002C33.8023 18.0662 33.9967 18.6038 34.3855 19.0106C34.7743 19.4186 35.2831 19.6214 35.9119 19.6214Z" fill="white"/>
<path d="M43.9638 11.9963C43.4574 11.9963 43.035 11.8271 42.6954 11.4875C42.3558 11.1479 42.1866 10.7255 42.1866 10.2191C42.1866 9.71268 42.3558 9.29029 42.6954 8.95069C43.035 8.61109 43.4574 8.44189 43.9638 8.44189C44.4702 8.44189 44.8926 8.61109 45.2322 8.95069C45.5718 9.29029 45.741 9.71268 45.741 10.2191C45.741 10.7255 45.5718 11.1479 45.2322 11.4875C44.8914 11.8259 44.469 11.9963 43.9638 11.9963ZM42.5754 21.9718V12.8279H45.3522V21.9718H42.5754Z" fill="white"/>
<path d="M53.7185 21.9711V17.2323C53.7185 16.5039 53.5577 15.9795 53.2373 15.6591C52.9169 15.3387 52.4969 15.1779 51.9785 15.1779C51.4602 15.1779 51.0402 15.3387 50.7198 15.6591C50.3982 15.9807 50.2386 16.5039 50.2386 17.2323V21.9711H47.4618V17.2323C47.4618 16.4667 47.5698 15.7947 47.7858 15.2151C48.0018 14.6355 48.3066 14.1507 48.7026 13.7619C49.0974 13.3731 49.5726 13.0803 50.1282 12.8823C50.6838 12.6855 51.3006 12.5859 51.9785 12.5859C52.6565 12.5859 53.2745 12.6819 53.8289 12.8727C54.3845 13.0647 54.8585 13.3539 55.2545 13.7427C55.6493 14.1315 55.9541 14.6163 56.1701 15.1959C56.3861 15.7755 56.4941 16.4547 56.4941 17.2323V21.9711H53.7185Z" fill="white"/>
<path d="M64.9721 20.8791H64.9349C64.6637 21.2487 64.3061 21.5391 63.8609 21.7491C63.4169 21.9591 62.9045 22.0635 62.3249 22.0635C61.8437 22.0635 61.3433 21.9807 60.8261 21.8139C60.3077 21.6471 59.8361 21.3795 59.4101 21.0087C58.9841 20.6391 58.6326 20.1567 58.3554 19.5651C58.0782 18.9723 57.939 18.2511 57.939 17.3991C57.939 16.7079 58.059 16.0659 58.3002 15.4743C58.5414 14.8815 58.8798 14.3727 59.3178 13.9467C59.7557 13.5207 60.2741 13.1883 60.8729 12.9471C61.4717 12.7059 62.1341 12.5859 62.8625 12.5859C63.5777 12.5859 64.2377 12.6999 64.8425 12.9279C65.4473 13.1559 65.9621 13.4835 66.3881 13.9083C66.8141 14.3343 67.1465 14.8491 67.3877 15.4539C67.6289 16.0587 67.7489 16.7379 67.7489 17.4903V21.2667C67.7489 22.1427 67.6193 22.8866 67.3601 23.4974C67.1009 24.1082 66.7517 24.6074 66.3149 24.9962C65.8769 25.385 65.3645 25.6682 64.7789 25.8482C64.1933 26.027 63.5669 26.117 62.8997 26.117C61.7273 26.117 60.7217 25.8542 59.8829 25.3298C59.0441 24.8054 58.4826 23.981 58.1982 22.859H61.0121C61.1477 23.1422 61.3757 23.3558 61.6973 23.4974C62.0177 23.639 62.4125 23.7098 62.8817 23.7098C63.5597 23.7098 64.0781 23.5394 64.4369 23.201C64.7945 22.8614 64.9733 22.2483 64.9733 21.3591V20.8791H64.9721ZM64.9721 17.3991C64.9721 16.7331 64.7777 16.1955 64.3889 15.7887C64.0001 15.3819 63.4913 15.1779 62.8613 15.1779C62.2313 15.1779 61.7225 15.3819 61.3349 15.7887C60.9473 16.1955 60.7517 16.7331 60.7517 17.3991C60.7517 18.0651 60.9461 18.5775 61.3349 18.9351C61.7237 19.2927 62.2325 19.4715 62.8613 19.4715C63.4901 19.4715 64.0001 19.2927 64.3889 18.9351C64.7777 18.5787 64.9721 18.0663 64.9721 17.3991Z" fill="white"/>
<path d="M72.0783 18.1774V18.2146C72.2019 18.721 72.4419 19.1002 72.8007 19.3534C73.1583 19.6066 73.5963 19.7326 74.1147 19.7326C74.5095 19.7326 74.8551 19.6834 75.1515 19.585C75.4479 19.4866 75.6819 19.3138 75.8547 19.0666H78.7238C78.4274 20.017 77.8718 20.779 77.0582 21.3526C76.2435 21.9262 75.2631 22.213 74.1159 22.213C73.3875 22.213 72.7239 22.093 72.1263 21.8518C71.5275 21.6118 71.0091 21.2782 70.5711 20.8522C70.1331 20.4262 69.7935 19.9174 69.5535 19.3258C69.3123 18.733 69.1923 18.0922 69.1923 17.401C69.1923 16.7099 69.3123 16.0679 69.5535 15.4763C69.7947 14.8847 70.1331 14.3747 70.5711 13.9487C71.0091 13.5227 71.5275 13.1903 72.1263 12.9491C72.7251 12.7079 73.3875 12.5879 74.1159 12.5879C74.8311 12.5879 75.4887 12.7079 76.0875 12.9491C76.6863 13.1891 77.2011 13.5227 77.633 13.9487C78.065 14.3747 78.3974 14.8835 78.6326 15.4763C78.8666 16.0691 78.9842 16.7099 78.9842 17.401V18.1786H72.0783V18.1774ZM74.1147 15.0683C73.6335 15.0683 73.2195 15.1799 72.8751 15.4019C72.5295 15.6239 72.2823 15.9515 72.1347 16.3823V16.4195H76.1331V16.3823C75.9723 15.9503 75.7167 15.6239 75.3651 15.4019C75.0123 15.1799 74.5959 15.0683 74.1147 15.0683Z" fill="white"/>
<path d="M86.9415 16.4187C86.7807 16.0359 86.5311 15.7335 86.1915 15.5115C85.8519 15.2895 85.4476 15.1779 84.9796 15.1779C84.3508 15.1779 83.8408 15.3819 83.4532 15.7887C83.0656 16.1955 82.87 16.7331 82.87 17.3991C82.87 18.0651 83.0644 18.6027 83.4532 19.0095C83.842 19.4163 84.3508 19.6203 84.9796 19.6203C85.4488 19.6203 85.8519 19.5087 86.1915 19.2867C86.5311 19.0647 86.7807 18.7623 86.9415 18.3795H89.7555C89.6571 18.9471 89.4711 19.4655 89.1999 19.9347C88.9287 20.4039 88.5855 20.8083 88.1727 21.1467C87.7587 21.4863 87.2811 21.7479 86.7387 21.9339C86.1951 22.1187 85.6095 22.2111 84.9807 22.2111C84.2523 22.2111 83.59 22.0911 82.9912 21.8499C82.3924 21.6099 81.874 21.2763 81.436 20.8503C80.998 20.4243 80.6584 19.9155 80.4184 19.3239C80.1784 18.7311 80.0572 18.0903 80.0572 17.3991C80.0572 16.7079 80.1772 16.0659 80.4184 15.4743C80.6596 14.8815 80.998 14.3727 81.436 13.9467C81.874 13.5207 82.3924 13.1883 82.9912 12.9471C83.59 12.7059 84.2523 12.5859 84.9807 12.5859C85.6095 12.5859 86.1963 12.6783 86.7387 12.8631C87.2811 13.0479 87.7599 13.3107 88.1727 13.6503C88.5855 13.9899 88.9287 14.3943 89.1999 14.8623C89.4711 15.3315 89.6559 15.8499 89.7555 16.4175H86.9415V16.4187Z" fill="white"/>
<path d="M91.4569 21.9721V8.83105H94.2337V21.9721H91.4569Z" fill="white"/>
<path d="M102.6 12.8291H105.377V17.5679C105.377 18.3335 105.269 19.0054 105.053 19.585C104.837 20.1646 104.531 20.6494 104.137 21.0382C103.742 21.427 103.267 21.7198 102.712 21.9178C102.156 22.1146 101.539 22.2142 100.86 22.2142C100.181 22.2142 99.564 22.1182 99.0097 21.9274C98.4553 21.7366 97.9789 21.4462 97.5841 21.0574C97.1893 20.6686 96.8833 20.185 96.6685 19.6042C96.4525 19.0246 96.3445 18.3455 96.3445 17.5679V12.8291H99.1213V17.5679C99.1213 18.2963 99.2809 18.8206 99.6025 19.141C99.9229 19.4626 100.343 19.6222 100.861 19.6222C101.38 19.6222 101.798 19.4626 102.12 19.141C102.44 18.8206 102.601 18.2963 102.601 17.5679V12.8291H102.6Z" fill="white"/>
<path d="M107.19 8.83105H109.967V13.7726H110.004C110.263 13.415 110.615 13.1282 111.059 12.9122C111.503 12.6962 112.021 12.5882 112.614 12.5882C113.095 12.5882 113.596 12.6806 114.113 12.8654C114.63 13.0502 115.103 13.337 115.529 13.7258C115.955 14.1146 116.306 14.6114 116.584 15.2162C116.861 15.821 117 16.5494 117 17.4002C117 18.0914 116.88 18.7334 116.639 19.325C116.398 19.9178 116.058 20.4266 115.621 20.8513C115.183 21.2773 114.661 21.6097 114.058 21.8509C113.453 22.0921 112.793 22.2121 112.078 22.2121C111.349 22.2121 110.686 22.0981 110.088 21.8701C109.489 21.6421 108.978 21.3145 108.552 20.8897C108.126 20.4638 107.794 19.949 107.552 19.3442C107.311 18.7394 107.191 18.0614 107.191 17.3078V8.83105H107.19ZM112.076 19.6214C112.705 19.6214 113.215 19.4174 113.603 19.0106C113.992 18.6038 114.186 18.0662 114.186 17.4002C114.186 16.7342 113.992 16.1966 113.603 15.7898C113.214 15.383 112.705 15.179 112.076 15.179C111.448 15.179 110.938 15.383 110.55 15.7898C110.161 16.1966 109.967 16.7342 109.967 17.4002C109.967 18.0662 110.161 18.6038 110.55 19.0106C110.939 19.4186 111.448 19.6214 112.076 19.6214Z" fill="white"/>
</svg>
