<svg width="28" height="28" viewBox="0 0 28 28" fill="none" xmlns="http://www.w3.org/2000/svg">
<path d="M4.73333 14.7333L0 10L4.73333 5.3L9.43333 10L4.73333 14.7333ZM10.3 28V20.9106C8.87778 20.7924 7.46667 20.6389 6.06667 20.45C4.66667 20.2611 3.26667 20 1.86667 19.6667L2.36667 17.6667C4.26151 18.1111 6.162 18.4278 8.06813 18.6167C9.97427 18.8056 11.9086 18.9 13.8711 18.9C15.8337 18.9 17.768 18.8056 19.6741 18.6167C21.5803 18.4278 23.4778 18.1111 25.3667 17.6667L25.8667 19.6667C24.4667 20 23.0669 20.2634 21.6672 20.4569C20.2676 20.6505 18.8563 20.7982 17.4333 20.9V28H10.3ZM4.73333 11.9667L6.66667 10L4.73333 8.06667L2.76667 10L4.73333 11.9667ZM13.8627 7.33333C12.8431 7.33333 11.9778 6.97647 11.2667 6.26273C10.5556 5.54902 10.2 4.68236 10.2 3.66273C10.2 2.64313 10.5569 1.77778 11.2706 1.06667C11.9843 0.355556 12.851 0 13.8706 0C14.8902 0 15.7556 0.356867 16.4667 1.0706C17.1778 1.78431 17.5333 2.65098 17.5333 3.6706C17.5333 4.6902 17.1765 5.55556 16.4627 6.26667C15.749 6.97778 14.8824 7.33333 13.8627 7.33333ZM13.8693 16.8667C13.2009 16.8667 12.6278 16.6287 12.15 16.1527C11.6722 15.6766 11.4333 15.1044 11.4333 14.436C11.4333 13.7676 11.6713 13.1944 12.1473 12.7167C12.6234 12.2389 13.1956 12 13.864 12C14.5324 12 15.1056 12.238 15.5833 12.714C16.0611 13.19 16.3 13.7622 16.3 14.4307C16.3 15.0991 16.062 15.6722 15.586 16.15C15.11 16.6278 14.5378 16.8667 13.8693 16.8667ZM13.8608 5.33333C14.3314 5.33333 14.7278 5.17417 15.05 4.85583C15.3722 4.53752 15.5333 4.14308 15.5333 3.6725C15.5333 3.20194 15.3742 2.80556 15.0558 2.48333C14.7375 2.16111 14.3431 2 13.8725 2C13.4019 2 13.0056 2.15917 12.6833 2.4775C12.3611 2.79581 12.2 3.19026 12.2 3.66083C12.2 4.13139 12.3592 4.52778 12.6775 4.85C12.9958 5.17222 13.3903 5.33333 13.8608 5.33333ZM21.1333 14.3333L19.0667 10.6667L21.1444 7H25.3L27.3667 10.6667L25.2889 14.3333H21.1333ZM22.2889 12.3333H24.1333L25.0667 10.6667L24.1444 9H22.3L21.3667 10.6667L22.2889 12.3333Z" fill="url(#paint0_linear_10_48)"/>
<defs>
<linearGradient id="paint0_linear_10_48" x1="-1.07687" y1="7.2221" x2="31.1988" y2="8.57574" gradientUnits="userSpaceOnUse">
<stop offset="0.0729167" stop-color="#FF7F00"/>
<stop offset="1" stop-color="#FFFF00"/>
</linearGradient>
</defs>
</svg>
