<svg width="29" height="28" viewBox="0 0 29 28" fill="none" xmlns="http://www.w3.org/2000/svg">
<path d="M11.6667 20.2267H6.61333C2.12 20.2267 1 19.1067 1 14.6133V6.61333C1 2.12 2.12 1 6.61333 1H20.6533C25.1467 1 26.2667 2.12 26.2667 6.61333" stroke="url(#paint0_linear_10_47)" stroke-width="1.5" stroke-linecap="round" stroke-linejoin="round"/>
<path d="M11.6667 26.2532V20.2266" stroke="url(#paint1_linear_10_47)" stroke-width="1.5" stroke-linecap="round" stroke-linejoin="round"/>
<path d="M1 14.8936H11.6667" stroke="url(#paint2_linear_10_47)" stroke-width="1.5" stroke-linecap="round" stroke-linejoin="round"/>
<path d="M7.32007 26.2539H11.6667" stroke="url(#paint3_linear_10_47)" stroke-width="1.5" stroke-linecap="round" stroke-linejoin="round"/>
<path d="M27.6667 14.6937V22.3071C27.6667 25.4671 26.88 26.2537 23.72 26.2537H18.9867C15.8267 26.2537 15.04 25.4671 15.04 22.3071V14.6937C15.04 11.5337 15.8267 10.7471 18.9867 10.7471H23.72C26.88 10.7471 27.6667 11.5337 27.6667 14.6937Z" stroke="url(#paint4_linear_10_47)" stroke-width="1.5" stroke-linecap="round" stroke-linejoin="round"/>
<path d="M21.3261 21.9606H21.3381" stroke="url(#paint5_linear_10_47)" stroke-width="2" stroke-linecap="round" stroke-linejoin="round"/>
<defs>
<linearGradient id="paint0_linear_10_47" x1="0.00576631" y1="5.95917" x2="29.7626" y2="7.63718" gradientUnits="userSpaceOnUse">
<stop offset="0.0729167" stop-color="#FF7F00"/>
<stop offset="1" stop-color="#FFFF00"/>
</linearGradient>
<linearGradient id="paint1_linear_10_47" x1="11.6274" y1="21.781" x2="12.8088" y2="21.7894" gradientUnits="userSpaceOnUse">
<stop offset="0.0729167" stop-color="#FF7F00"/>
<stop offset="1" stop-color="#FFFF00"/>
</linearGradient>
<linearGradient id="paint2_linear_10_47" x1="0.580271" y1="15.1515" x2="10.9996" y2="19.9205" gradientUnits="userSpaceOnUse">
<stop offset="0.0729167" stop-color="#FF7F00"/>
<stop offset="1" stop-color="#FFFF00"/>
</linearGradient>
<linearGradient id="paint3_linear_10_47" x1="7.14903" y1="26.5118" x2="12.1118" y2="27.4375" gradientUnits="userSpaceOnUse">
<stop offset="0.0729167" stop-color="#FF7F00"/>
<stop offset="1" stop-color="#FFFF00"/>
</linearGradient>
<linearGradient id="paint4_linear_10_47" x1="14.5432" y1="14.7467" x2="29.4428" y2="15.2673" gradientUnits="userSpaceOnUse">
<stop offset="0.0729167" stop-color="#FF7F00"/>
<stop offset="1" stop-color="#FFFF00"/>
</linearGradient>
<linearGradient id="paint5_linear_10_47" x1="20.6144" y1="21.6379" x2="22.1836" y2="21.7051" gradientUnits="userSpaceOnUse">
<stop offset="0.0729167" stop-color="#FF7F00"/>
<stop offset="1" stop-color="#FFFF00"/>
</linearGradient>
</defs>
</svg>
