<svg width="32" height="30" viewBox="0 0 32 30" fill="none" xmlns="http://www.w3.org/2000/svg">
<path d="M29.3438 15.3623H28.6313C28.275 11.6748 24.9937 8.97481 21.3062 9.33731C18.1125 9.64981 15.5875 12.1748 15.2812 15.3623H2.65625C1.1875 15.3623 0 16.5498 0 18.0186V24.3436C0 25.8061 1.1875 26.9998 2.65625 26.9998H3.225V28.1061C3.225 28.8373 3.81875 29.4248 4.54375 29.4248H7.0375C7.76875 29.4248 8.35625 28.8311 8.35625 28.1061V26.9998H23.6313V28.1061C23.6313 28.8373 24.225 29.4248 24.95 29.4248H27.4438C28.175 29.4248 28.7625 28.8311 28.7625 28.1061V26.9998H29.3312C30.8 26.9998 31.9875 25.8061 31.9875 24.3436V18.0186C32 16.5498 30.8125 15.3623 29.3438 15.3623ZM21.9562 10.6123C24.9437 10.6123 27.3625 13.0311 27.3625 16.0186C27.3625 19.0061 24.9437 21.4248 21.9562 21.4248C18.9687 21.4248 16.55 19.0061 16.55 16.0186C16.55 13.0311 18.9687 10.6123 21.9562 10.6123ZM7.04375 28.1186L4.53125 28.1061V26.9998H7.05L7.04375 28.1186ZM27.45 28.1186L24.9438 28.1061V26.9998H27.4625L27.45 28.1186ZM30.6938 24.3436C30.6938 25.0873 30.0875 25.6936 29.3438 25.6936C29.2937 25.6936 8.41875 25.6936 2.65625 25.6936C1.9125 25.6936 1.30625 25.0873 1.30625 24.3436V18.0186C1.30625 17.2748 1.9125 16.6686 2.65625 16.6686H15.275C15.6312 20.3561 18.9125 23.0561 22.6 22.6936C25.7938 22.3811 28.3187 19.8561 28.625 16.6686H29.3375C30.0812 16.6686 30.6875 17.2748 30.6875 18.0186V24.3436H30.6938Z" fill="url(#paint0_linear_10_34)"/>
<path d="M21.9563 13.2811C23.4625 13.2811 24.6875 14.5061 24.6875 16.0186C24.675 16.3811 24.9625 16.6811 25.3188 16.6936C25.6813 16.7061 25.9813 16.4186 25.9938 16.0623C25.9938 16.0498 25.9938 16.0373 25.9938 16.0248C25.9938 13.7936 24.1813 11.9873 21.9563 11.9811C21.5938 11.9811 21.3063 12.2748 21.3063 12.6373C21.3 12.9873 21.5938 13.2811 21.9563 13.2811ZM12.5688 19.0061H3.98755C3.62505 19.0061 3.3313 19.2998 3.3313 19.6561C3.3313 20.0186 3.62505 20.3123 3.9813 20.3123H12.5625C12.925 20.3123 13.2188 20.0186 13.2188 19.6623C13.2188 19.3061 12.9313 19.0061 12.5688 19.0061ZM4.97505 22.0436H3.98755C3.62505 22.0436 3.3313 22.3373 3.3313 22.6936C3.3313 23.0561 3.62505 23.3498 3.9813 23.3498H4.96255C5.32505 23.3498 5.61255 23.0561 5.61255 22.6936C5.62505 22.3373 5.3313 22.0436 4.97505 22.0436ZM8.77505 22.0436H7.78755C7.42505 22.0436 7.1313 22.3373 7.1313 22.6936C7.1313 23.0561 7.42505 23.3498 7.7813 23.3498H8.7688C9.1313 23.3498 9.4188 23.0561 9.4188 22.6936C9.42505 22.3373 9.1313 22.0436 8.77505 22.0436ZM12.5688 22.0436H11.5875C11.225 22.0436 10.9375 22.3373 10.9375 22.6998C10.9375 23.0623 11.2313 23.3498 11.5875 23.3498H12.5688C12.9313 23.3498 13.225 23.0561 13.225 22.6998C13.225 22.3436 12.9313 22.0436 12.5688 22.0436ZM21.9563 7.69355C22.3188 7.69355 22.6125 7.3998 22.6125 7.04355V1.23105C22.6125 0.868555 22.3188 0.581055 21.9563 0.581055C21.5938 0.581055 21.3063 0.874805 21.3063 1.23105V7.0373C21.3 7.3998 21.5938 7.69355 21.9563 7.69355ZM18.5313 7.3498C18.7063 7.6623 19.1063 7.7748 19.4188 7.5998C19.7251 7.4248 19.8438 7.0373 19.675 6.7248L17.4375 2.61855C17.2625 2.30605 16.8625 2.19355 16.55 2.36855C16.2438 2.54355 16.125 2.93105 16.2938 3.24355L18.5313 7.3498ZM24.4875 7.6123C24.8063 7.7873 25.2 7.66855 25.375 7.35605L27.6125 3.2498C27.7938 2.9373 27.6938 2.5373 27.3813 2.35605C27.0688 2.1748 26.6688 2.2748 26.4875 2.5873C26.4813 2.5998 26.475 2.6123 26.4688 2.6248L24.2313 6.73105C24.0563 7.04355 24.1688 7.4373 24.4875 7.6123Z" fill="url(#paint1_linear_10_34)"/>
<defs>
<linearGradient id="paint0_linear_10_34" x1="-1.2587" y1="14.4943" x2="36.3581" y2="17.0605" gradientUnits="userSpaceOnUse">
<stop offset="0.0729167" stop-color="#FF7F00"/>
<stop offset="1" stop-color="#FFFF00"/>
</linearGradient>
<linearGradient id="paint1_linear_10_34" x1="2.3723" y1="6.45384" x2="31.1053" y2="7.77357" gradientUnits="userSpaceOnUse">
<stop offset="0.0729167" stop-color="#FF7F00"/>
<stop offset="1" stop-color="#FFFF00"/>
</linearGradient>
</defs>
</svg>
