<svg width="20" height="19" viewBox="0 0 20 19" fill="none" xmlns="http://www.w3.org/2000/svg">
<path d="M10.0999 10.1497C10.0416 10.1414 9.9666 10.1414 9.89994 10.1497C8.43327 10.0997 7.2666 8.89974 7.2666 7.42474C7.2666 5.91641 8.48327 4.69141 9.99993 4.69141C11.5083 4.69141 12.7333 5.91641 12.7333 7.42474C12.7249 8.89974 11.5666 10.0997 10.0999 10.1497Z" stroke="#292D32" stroke-width="1.5" stroke-linecap="round" stroke-linejoin="round"/>
<path d="M15.6166 15.6498C14.1333 17.0081 12.1666 17.8331 9.99997 17.8331C7.8333 17.8331 5.86663 17.0081 4.3833 15.6498C4.46663 14.8665 4.96663 14.0998 5.8583 13.4998C8.14163 11.9831 11.875 11.9831 14.1416 13.4998C15.0333 14.0998 15.5333 14.8665 15.6166 15.6498Z" stroke="#292D32" stroke-width="1.5" stroke-linecap="round" stroke-linejoin="round"/>
<path d="M10.0001 17.8337C14.6025 17.8337 18.3334 14.1027 18.3334 9.50033C18.3334 4.89795 14.6025 1.16699 10.0001 1.16699C5.39771 1.16699 1.66675 4.89795 1.66675 9.50033C1.66675 14.1027 5.39771 17.8337 10.0001 17.8337Z" stroke="#292D32" stroke-width="1.5" stroke-linecap="round" stroke-linejoin="round"/>
</svg>
