<svg width="19" height="19" viewBox="0 0 19 19" fill="none" xmlns="http://www.w3.org/2000/svg">
<path d="M14.0333 10.7923C13.6833 11.134 13.4833 11.6256 13.5333 12.1506C13.6083 13.0506 14.4333 13.709 15.3333 13.709H16.9166V14.7006C16.9166 16.4256 15.5083 17.834 13.7833 17.834H4.21659C2.49159 17.834 1.08325 16.4256 1.08325 14.7006V9.09233C1.08325 7.36733 2.49159 5.95898 4.21659 5.95898H13.7833C15.5083 5.95898 16.9166 7.36733 16.9166 9.09233V10.2923H15.2333C14.7666 10.2923 14.3416 10.4756 14.0333 10.7923Z" stroke="#292D32" stroke-width="1.5" stroke-linecap="round" stroke-linejoin="round"/>
<path d="M1.08325 9.84208V6.03379C1.08325 5.04212 1.69159 4.15875 2.61659 3.80875L9.23325 1.30875C10.2666 0.917083 11.3749 1.68377 11.3749 2.79211V5.95876" stroke="#292D32" stroke-width="1.5" stroke-linecap="round" stroke-linejoin="round"/>
<path d="M17.7989 11.142V12.8587C17.7989 13.317 17.4323 13.692 16.9656 13.7086H15.3323C14.4323 13.7086 13.6073 13.0503 13.5323 12.1503C13.4823 11.6253 13.6823 11.1336 14.0323 10.792C14.3406 10.4753 14.7656 10.292 15.2323 10.292H16.9656C17.4323 10.3087 17.7989 10.6836 17.7989 11.142Z" stroke="#292D32" stroke-width="1.5" stroke-linecap="round" stroke-linejoin="round"/>
<path d="M4.83325 9.5H10.6666" stroke="#292D32" stroke-width="1.5" stroke-linecap="round" stroke-linejoin="round"/>
</svg>
