<svg width="59" height="47" viewBox="0 0 59 47" fill="none" xmlns="http://www.w3.org/2000/svg">
<path d="M0 23.6472V42.0004C0 44.7619 2.23858 47.0004 5 47.0004H18.3532C21.1147 47.0004 23.3532 44.7619 23.3532 42.0004V28.6472C23.3532 25.8858 21.1147 23.6472 18.3532 23.6472H16.6766C13.9152 23.6472 11.6758 21.3436 12.7011 18.7796C13.5997 16.5322 15.2864 14.0875 18.4528 12.828C21.0187 11.8073 23.3532 9.73199 23.3532 6.97057V5.29394C23.3532 2.53252 21.1073 0.334014 18.4053 0.903987C11.5508 2.34994 0 7.22317 0 23.6472ZM53.4826 12.828C56.0485 11.8073 58.3831 9.73199 58.3831 6.97057V5.29394C58.3831 2.53252 56.1372 0.334014 53.4352 0.903987C46.5807 2.34994 35.0299 7.22317 35.0299 23.6472V42.0004C35.0299 44.7619 37.2684 47.0004 40.0299 47.0004H53.3831C56.1445 47.0004 58.3831 44.7619 58.3831 42.0004V28.6472C58.3831 25.8858 56.1445 23.6472 53.3831 23.6472H51.7065C48.9451 23.6472 46.7057 21.3436 47.7309 18.7796C48.6295 16.5322 50.3163 14.0875 53.4826 12.828Z" fill="url(#paint0_linear_601_2575)"/>
<defs>
<linearGradient id="paint0_linear_601_2575" x1="-2.29735" y1="12.341" x2="66.4818" y2="16.0302" gradientUnits="userSpaceOnUse">
<stop offset="0.0027933" stop-color="#FF0059"/>
<stop offset="0.1064" stop-color="#FF144C"/>
<stop offset="0.4024" stop-color="#FF472C"/>
<stop offset="0.6607" stop-color="#FF6C14"/>
<stop offset="0.8686" stop-color="#FF8305"/>
<stop offset="1" stop-color="#FF8B00"/>
</linearGradient>
</defs>
</svg>
