<svg width="59" height="47" viewBox="0 0 59 47" fill="none" xmlns="http://www.w3.org/2000/svg">
<path id="Icon metro-quote" d="M0 23.6472V42.0004C0 44.7619 2.23858 47.0004 5 47.0004H18.4575C21.2189 47.0004 23.4575 44.7619 23.4575 42.0004V28.6472C23.4575 25.8858 21.2189 23.6472 18.4575 23.6472H16.7287C13.9673 23.6472 11.7284 21.3432 12.7573 18.7806C13.6617 16.5283 15.3613 14.0774 18.5552 12.8201C21.1247 11.8085 23.4575 9.73199 23.4575 6.97057V5.29394C23.4575 2.53252 21.2118 0.333847 18.5089 0.899493C11.6265 2.33983 0 7.20611 0 23.6472ZM53.7415 12.8201C56.311 11.8085 58.6437 9.73199 58.6437 6.97057V5.29394C58.6437 2.53252 56.3981 0.333847 53.6952 0.899493C46.8127 2.33983 35.1862 7.20611 35.1862 23.6472V42.0004C35.1862 44.7619 37.4248 47.0004 40.1862 47.0004H53.6437C56.4052 47.0004 58.6437 44.7619 58.6437 42.0004V28.6472C58.6437 25.8858 56.4052 23.6472 53.6437 23.6472H51.915C49.1536 23.6472 46.9146 21.3432 47.9436 18.7806C48.848 16.5283 50.5476 14.0774 53.7415 12.8201Z" fill="url(#paint0_linear_1532_3663)"/>
<defs>
<linearGradient id="paint0_linear_1532_3663" x1="-2.30761" y1="12.341" x2="66.7768" y2="16.0631" gradientUnits="userSpaceOnUse">
<stop offset="0.0027933" stop-color="#FF0059"/>
<stop offset="0.1064" stop-color="#FF144C"/>
<stop offset="0.4024" stop-color="#FF472C"/>
<stop offset="0.6607" stop-color="#FF6C14"/>
<stop offset="0.8686" stop-color="#FF8305"/>
<stop offset="1" stop-color="#FF8B00"/>
</linearGradient>
</defs>
</svg>
