<svg width="80" height="25" viewBox="0 0 80 25" fill="none" xmlns="http://www.w3.org/2000/svg">
<path d="M59.4912 23.5784L66.1629 16.1891L59.4912 8.79883H66.5305L69.8349 12.3885L73.0168 8.79883H79.8105L73.1705 16.1586L79.9016 23.5784H72.8335L69.559 19.9592L66.3156 23.5784H59.4912Z" fill="#777777"/>
<path d="M59.491 5.48602H51.9348V8.79905H59.491V13.7921H51.9348V18.375H59.491V23.5786H46.3811V0.296875H59.491V5.48602Z" fill="#777777"/>
<path d="M40.8508 0.296875V9.82487H40.7899C39.5656 8.43767 38.0358 7.95562 36.2609 7.95562C32.625 7.95562 29.8863 10.392 28.9249 13.6131C27.8285 10.0638 25.001 7.8891 20.8084 7.8891C17.4035 7.8891 14.7148 9.39562 13.3117 11.8505V8.79939H6.27374V5.4867H13.9541V0.296875H0V23.5789H6.27374V13.7921H12.527C12.3405 14.511 12.241 15.2808 12.241 16.093C12.241 20.9496 16.0049 24.3572 20.8084 24.3572C24.8477 24.3572 27.5096 22.488 28.9176 19.08H23.5412C22.8139 20.1037 22.2623 20.4078 20.8084 20.4078C19.1224 20.4078 17.6689 18.9579 17.6689 17.2392H28.6164C29.0911 21.0966 32.1395 24.4234 36.3228 24.4234C38.1273 24.4234 39.7795 23.5484 40.7899 22.071H40.8508V23.5782H46.3812V0.296875H40.8508ZM17.8435 13.8617C18.1923 12.3829 19.3558 11.4164 20.8084 11.4164C22.4073 11.4164 23.5117 12.3531 23.8021 13.8617C23.9245 13.8617 17.8435 13.8617 17.8435 13.8617ZM37.4946 20.0338C35.456 20.0338 34.1892 18.1614 34.1892 16.2065C34.1892 14.1168 35.2911 12.1073 37.4946 12.1073C39.7795 12.1073 40.6897 14.1168 40.6897 16.2065C40.6894 18.1882 39.7249 20.0338 37.4946 20.0338Z" fill="#777777"/>
</svg>
