<svg width="84" height="28" viewBox="0 0 84 28" fill="none" xmlns="http://www.w3.org/2000/svg">
<path d="M36.3462 14.6557C36.3462 18.5422 33.261 21.4061 29.4748 21.4061C25.6887 21.4061 22.6035 18.5422 22.6035 14.6557C22.6035 10.7418 25.6887 7.90527 29.4748 7.90527C33.261 7.90527 36.3462 10.7418 36.3462 14.6557ZM33.3382 14.6557C33.3382 12.227 31.5501 10.5653 29.4748 10.5653C27.3995 10.5653 25.6115 12.227 25.6115 14.6557C25.6115 17.0601 27.3995 18.7461 29.4748 18.7461C31.5501 18.7461 33.3382 17.057 33.3382 14.6557Z" fill="#777777"/>
<path d="M51.1699 14.6557C51.1699 18.5422 48.0847 21.4061 44.2986 21.4061C40.5124 21.4061 37.4272 18.5422 37.4272 14.6557C37.4272 10.7448 40.5124 7.90527 44.2986 7.90527C48.0847 7.90527 51.1699 10.7418 51.1699 14.6557ZM48.1619 14.6557C48.1619 12.227 46.3739 10.5653 44.2986 10.5653C42.2233 10.5653 40.4352 12.227 40.4352 14.6557C40.4352 17.0601 42.2233 18.7461 44.2986 18.7461C46.3739 18.7461 48.1619 17.057 48.1619 14.6557Z" fill="#777777"/>
<path d="M65.3758 8.3131V20.4322C65.3758 25.4174 62.3926 27.4535 58.8658 27.4535C55.546 27.4535 53.5479 25.2653 52.7943 23.4757L55.4132 22.4014C55.8795 23.5001 57.0221 24.7966 58.8627 24.7966C61.1202 24.7966 62.5192 23.424 62.5192 20.8401V19.8692H62.4142C61.741 20.6879 60.4439 21.4031 58.8071 21.4031C55.3823 21.4031 52.2446 18.4631 52.2446 14.6801C52.2446 10.8696 55.3823 7.90527 58.8071 7.90527C60.4408 7.90527 61.7379 8.62049 62.4142 9.41484H62.5192V8.31614H65.3758V8.3131ZM62.7323 14.6801C62.7323 12.3031 61.1233 10.5653 59.0758 10.5653C57.0005 10.5653 55.2618 12.3031 55.2618 14.6801C55.2618 17.0327 57.0005 18.7461 59.0758 18.7461C61.1233 18.7461 62.7323 17.0327 62.7323 14.6801Z" fill="#777777"/>
<path d="M70.0852 1.20996V20.9926H67.1514V1.20996H70.0852Z" fill="#777777"/>
<path d="M81.5179 16.8776L83.8527 18.4115C83.0991 19.5102 81.2832 21.4032 78.1456 21.4032C74.2544 21.4032 71.3484 18.4389 71.3484 14.6528C71.3484 10.6384 74.2791 7.90234 77.809 7.90234C81.3635 7.90234 83.1022 10.6902 83.6704 12.1967L83.9824 12.9636L74.8257 16.701C75.5268 18.0554 76.6169 18.7463 78.1456 18.7463C79.6774 18.7463 80.7397 18.0036 81.5179 16.8776ZM74.3316 14.4489L80.4525 11.9441C80.1159 11.101 79.1029 10.5136 77.9109 10.5136C76.3822 10.5136 74.2544 11.8436 74.3316 14.4489V14.4489Z" fill="#777777"/>
<path d="M11.4984 12.8995V10.0355H21.2912C21.3869 10.5347 21.4363 11.1251 21.4363 11.7642C21.4363 13.9129 20.8403 16.5699 18.9194 18.4629C17.051 20.3803 14.6638 21.4029 11.5015 21.4029C5.64 21.4029 0.711182 16.6977 0.711182 10.9212C0.711182 5.14467 5.64 0.439453 11.5015 0.439453C14.7441 0.439453 17.0541 1.69337 18.7897 3.32771L16.7391 5.34858C15.4946 4.19815 13.8084 3.30337 11.4984 3.30337C7.21809 3.30337 3.87045 6.70293 3.87045 10.9212C3.87045 15.1395 7.21809 18.539 11.4984 18.539C14.2747 18.539 15.8559 17.4403 16.8688 16.4421C17.6903 15.6325 18.2307 14.476 18.4438 12.8964L11.4984 12.8995V12.8995Z" fill="#777777"/>
</svg>
