<svg width="85" height="25" viewBox="0 0 85 25" fill="none" xmlns="http://www.w3.org/2000/svg">
<path d="M9.8968 4.27051V11.0403H3.72851V4.27051H0.800049V20.4306H3.72851V13.8806H9.8968V20.4306H12.8253V4.27051H9.8968Z" fill="#777777"/>
<path d="M22.1974 15.2068C22.1974 15.8544 21.9422 16.4755 21.4878 16.9335C21.0335 17.3914 20.4173 17.6487 19.7747 17.6487C19.1322 17.6487 18.516 17.3914 18.0616 16.9335C17.6073 16.4755 17.352 15.8544 17.352 15.2068V8.28516H14.5742V15.2068C14.5742 16.5956 15.1216 17.9276 16.0959 18.9097C17.0703 19.8918 18.3918 20.4435 19.7697 20.4435C21.1476 20.4435 22.4691 19.8918 23.4435 18.9097C24.4178 17.9276 24.9652 16.5956 24.9652 15.2068V8.28516H22.1974V15.2068Z" fill="#777777"/>
<path d="M42.7785 8.9982C42.7785 7.57946 43.7097 7.12968 44.7299 7.12968C45.552 7.12968 46.6382 7.76023 47.3484 8.52528L49.1678 6.36463C48.2595 5.12667 46.4172 4.27051 44.9092 4.27051C41.8961 4.27051 39.7166 6.04936 39.7166 8.9982C39.7166 14.4692 46.3512 12.7338 46.3512 15.7954C46.3512 16.7398 45.4415 17.5743 44.3999 17.5743C42.757 17.5743 42.2247 16.7644 41.47 15.9082L39.4512 18.024C40.7425 19.6221 42.3352 20.4334 44.2435 20.4334C47.1059 20.4334 49.4088 18.6329 49.4088 15.8186C49.4088 9.74445 42.7742 11.6318 42.7742 8.9982" fill="#777777"/>
<path d="M83.8227 17.849C82.1813 17.849 81.715 17.1332 81.715 16.0369V11.1849H84.2661V8.72629H81.715V5.48242L78.8984 6.75654V16.64C78.8984 19.168 80.6288 20.4421 83.002 20.4421C83.3742 20.4489 83.7462 20.4189 84.1126 20.3524L84.7998 17.8028C84.4899 17.8245 84.1341 17.8461 83.8227 17.8461" fill="#777777"/>
<path d="M32.7707 8.36598C31.3947 8.36598 30.4348 8.76803 29.5065 9.68638V4.36719H26.7244V14.2261C26.7244 17.9168 29.3716 20.4448 32.346 20.4448C35.6461 20.4448 38.5487 17.872 38.5487 14.4068C38.5487 10.9851 35.8771 8.36743 32.7707 8.36743V8.36598ZM32.7535 17.6232C32.1292 17.6232 31.5189 17.4366 30.9998 17.087C30.4807 16.7374 30.0761 16.2405 29.8372 15.6591C29.5982 15.0777 29.5357 14.438 29.6575 13.8208C29.7793 13.2036 30.08 12.6367 30.5214 12.1918C30.9629 11.7468 31.5253 11.4438 32.1377 11.321C32.75 11.1982 33.3847 11.2612 33.9615 11.5021C34.5382 11.7429 35.0312 12.1507 35.3781 12.6739C35.7249 13.1971 35.9101 13.8123 35.9101 14.4415C35.9101 15.2854 35.5775 16.0947 34.9855 16.6913C34.3935 17.288 33.5907 17.6232 32.7535 17.6232Z" fill="#777777"/>
<path d="M62.9791 14.2596C62.9791 10.7887 60.0822 8.22168 56.7764 8.22168C53.802 8.22168 51.1548 10.7497 51.1548 14.4404V24.3051H53.9369V18.9786C54.8638 19.8956 55.8251 20.299 57.1997 20.299C60.306 20.299 62.9777 17.6828 62.9777 14.2596H62.9791ZM60.3448 14.2249C60.3448 14.8542 60.1597 15.4694 59.8128 15.9926C59.466 16.5158 58.973 16.9236 58.3962 17.1644C57.8194 17.4052 57.1847 17.4682 56.5724 17.3455C55.96 17.2227 55.3976 16.9197 54.9561 16.4747C54.5147 16.0298 54.214 15.4628 54.0922 14.8456C53.9704 14.2285 54.033 13.5887 54.2719 13.0074C54.5108 12.426 54.9154 11.9291 55.4345 11.5795C55.9536 11.2299 56.5639 11.0433 57.1882 11.0433C58.0254 11.0433 58.8283 11.3785 59.4202 11.9751C60.0122 12.5718 60.3448 13.3811 60.3448 14.2249Z" fill="#777777"/>
<path d="M71.9669 8.08523V5.268C72.3363 5.09404 72.649 4.81791 72.8688 4.47175C73.0885 4.12559 73.2061 3.72365 73.208 3.31271V3.24763C73.208 2.67229 72.9813 2.12051 72.5777 1.71368C72.174 1.30686 71.6266 1.0783 71.0558 1.0783H70.9912C70.4204 1.0783 69.873 1.30686 69.4694 1.71368C69.0658 2.12051 68.839 2.67229 68.839 3.24763V3.31271C68.8409 3.72365 68.9586 4.12559 69.1783 4.47175C69.398 4.81791 69.7108 5.09404 70.0801 5.268V8.08523C69.0185 8.24894 68.0187 8.69247 67.1818 9.37092L59.517 3.3532C59.5713 3.15476 59.6002 2.95016 59.6031 2.74435C59.6039 2.26089 59.4625 1.78803 59.1967 1.38559C58.9309 0.983154 58.5527 0.66921 58.1099 0.483471C57.667 0.297732 57.1795 0.248543 56.7089 0.342125C56.2383 0.435706 55.8058 0.667855 55.4662 1.00921C55.1265 1.35056 54.8949 1.78578 54.8007 2.25982C54.7064 2.73385 54.7538 3.22541 54.9368 3.67232C55.1197 4.11923 55.4301 4.5014 55.8286 4.7705C56.227 5.0396 56.6957 5.18354 57.1754 5.18412C57.5948 5.18223 58.0064 5.06953 58.3692 4.85727L65.9177 10.7766C65.2395 11.8092 64.8856 13.0238 64.9022 14.2621C64.9188 15.5003 65.3052 16.7048 66.011 17.7185L63.7153 20.0324C63.5296 19.9727 63.3362 19.941 63.1414 19.9384C62.7476 19.9387 62.3628 20.0567 62.0355 20.2773C61.7082 20.498 61.4531 20.8115 61.3026 21.1783C61.152 21.545 61.1127 21.9485 61.1896 22.3378C61.2665 22.727 61.4561 23.0846 61.7346 23.3652C62.013 23.6458 62.3677 23.837 62.7539 23.9145C63.1401 23.992 63.5404 23.9524 63.9043 23.8006C64.2681 23.6489 64.5791 23.3918 64.7981 23.0619C65.017 22.732 65.134 22.3441 65.1343 21.9472C65.1319 21.7508 65.1004 21.5559 65.0411 21.3687L67.3124 19.0794C68.053 19.6538 68.9142 20.0498 69.8301 20.237C70.746 20.4242 71.6923 20.3976 72.5964 20.1593C73.5005 19.921 74.3386 19.4772 75.0463 18.8621C75.754 18.2469 76.3127 17.4766 76.6795 16.6103C77.0462 15.7439 77.2114 14.8044 77.1624 13.8637C77.1134 12.9231 76.8514 12.0062 76.3965 11.1834C75.9417 10.3605 75.306 9.6535 74.5382 9.11649C73.7704 8.57949 72.8909 8.22673 71.9669 8.08523V8.08523ZM71.0257 17.3497C70.4044 17.3491 69.7972 17.1629 69.2809 16.8146C68.7645 16.4663 68.3622 15.9716 68.1248 15.3929C67.8874 14.8142 67.8255 14.1775 67.9469 13.5634C68.0684 12.9492 68.3677 12.3851 68.8072 11.9424C69.2466 11.4997 69.8063 11.1982 70.4157 11.0761C71.0251 10.954 71.6567 11.0166 72.2307 11.2562C72.8047 11.4958 73.2954 11.9015 73.6407 12.4221C73.9861 12.9427 74.1705 13.5548 74.1708 14.181C74.1708 15.021 73.8397 15.8266 73.2505 16.4206C72.6612 17.0146 71.8619 17.3483 71.0286 17.3483" fill="#777777"/>
</svg>
