<svg width="123" height="27" viewBox="0 0 123 27" fill="none" xmlns="http://www.w3.org/2000/svg">
<path d="M43.4635 15.2717L42.7364 17.3275H42.6758C42.5546 16.8639 42.3324 16.1585 41.9688 15.312L38.0705 5.5368H34.2529V21.1166H36.7778V11.5027C36.7778 10.898 36.7778 10.2128 36.7576 9.36626C36.7374 8.94301 36.697 8.62052 36.6768 8.37866H36.7374C36.8586 8.98331 36.9999 9.42673 37.1009 9.7089L41.787 21.0763H43.5645L48.2102 9.60812C48.3112 9.34611 48.4122 8.82207 48.5132 8.37866H48.5738C48.5132 9.5275 48.4728 10.5554 48.4526 11.1802V21.0562H51.139V5.49649H47.4629L43.4635 15.2717V15.2717ZM53.684 9.89029H56.3099V21.0562H53.684V9.89029ZM55.0172 5.17401C54.5728 5.17401 54.2092 5.33525 53.9062 5.61742C53.6033 5.89959 53.4417 6.26238 53.4417 6.7058C53.4417 7.12905 53.6033 7.49184 53.9062 7.77401C54.2092 8.05618 54.5728 8.19727 55.0172 8.19727C55.4615 8.19727 55.8453 8.03603 56.1281 7.77401C56.4311 7.49184 56.5927 7.12905 56.5927 6.7058C56.5927 6.28254 56.4311 5.91975 56.1281 5.61742C55.8655 5.33525 55.4817 5.17401 55.0172 5.17401V5.17401ZM65.6215 9.78952C65.1367 9.68874 64.6317 9.62828 64.147 9.62828C62.9552 9.62828 61.8645 9.89029 60.9556 10.4143C60.0466 10.9384 59.3195 11.6639 58.8549 12.5709C58.3701 13.498 58.1278 14.5663 58.1278 15.7957C58.1278 16.8639 58.3701 17.8112 58.8347 18.6779C59.2993 19.5244 59.9456 20.2097 60.8142 20.6732C61.6423 21.1368 62.6119 21.3787 63.7026 21.3787C64.9549 21.3787 66.0254 21.1166 66.8738 20.6329L66.894 20.6128V18.1942L66.793 18.2748C66.4092 18.557 65.9648 18.7988 65.5205 18.9399C65.0559 19.1011 64.6317 19.1818 64.2682 19.1818C63.2178 19.1818 62.3897 18.8794 61.8039 18.2143C61.198 17.5694 60.895 16.6825 60.895 15.574C60.895 14.4252 61.198 13.5182 61.8241 12.8531C62.4503 12.188 63.2784 11.8453 64.2884 11.8453C65.1367 11.8453 66.0052 12.1275 66.793 12.6918L66.894 12.7725V10.2128L66.8738 10.1926C66.5304 10.0515 66.1466 9.89029 65.6215 9.78952V9.78952ZM74.2867 9.7089C73.6403 9.7089 73.0344 9.91045 72.5092 10.3337C72.0648 10.6965 71.7619 11.2205 71.4993 11.8453H71.4791V9.89029H68.8533V21.0562H71.4791V15.3523C71.4791 14.3849 71.6811 13.5787 72.1254 12.9942C72.5698 12.3895 73.1354 12.0872 73.8221 12.0872C74.0645 12.0872 74.3069 12.1477 74.6099 12.188C74.8927 12.2686 75.0946 12.3492 75.236 12.45L75.337 12.5306V9.91045L75.2764 9.89029C75.0946 9.76936 74.7311 9.7089 74.2867 9.7089V9.7089ZM81.437 9.64843C79.599 9.64843 78.1244 10.1926 77.0943 11.2608C76.044 12.3291 75.539 13.8004 75.539 15.6546C75.539 17.388 76.0642 18.7988 77.0741 19.8267C78.0841 20.8345 79.4576 21.3585 81.1744 21.3585C82.9721 21.3585 84.4062 20.8143 85.4364 19.726C86.4867 18.6376 86.9917 17.1864 86.9917 15.3926C86.9917 13.619 86.5069 12.2081 85.5172 11.1802C84.5678 10.1523 83.1741 9.64843 81.437 9.64843V9.64843ZM83.5377 18.2345C83.0529 18.8593 82.2854 19.1616 81.336 19.1616C80.3867 19.1616 79.6191 18.8593 79.0738 18.1942C78.5284 17.5694 78.2658 16.6624 78.2658 15.5135C78.2658 14.3244 78.5486 13.4174 79.0738 12.7725C79.6191 12.1275 80.3665 11.805 81.3158 11.805C82.245 11.805 82.9721 12.1073 83.4973 12.7322C84.0225 13.357 84.3052 14.2639 84.3052 15.4531C84.2648 16.6624 84.0427 17.6097 83.5377 18.2345V18.2345ZM92.8493 14.526C92.0211 14.1833 91.496 13.9213 91.2536 13.6996C91.0516 13.498 90.9506 13.2159 90.9506 12.8531C90.9506 12.5508 91.0718 12.2484 91.3748 12.0469C91.6778 11.8453 92.0211 11.7446 92.5261 11.7446C92.9705 11.7446 93.435 11.8252 93.8794 11.9461C94.3238 12.067 94.7278 12.2484 95.0509 12.4903L95.1519 12.5709V10.112L95.0913 10.0918C94.7883 9.97091 94.3844 9.84998 93.8996 9.74921C93.4148 9.66859 92.9705 9.62828 92.6069 9.62828C91.3546 9.62828 90.3244 9.9306 89.5165 10.5957C88.7086 11.2205 88.3248 12.067 88.3248 13.0546C88.3248 13.5787 88.4056 14.0422 88.5874 14.4252C88.7691 14.8081 89.0317 15.1709 89.3953 15.4732C89.7589 15.7554 90.284 16.0779 91.0112 16.3802C91.6172 16.6422 92.0817 16.8438 92.3645 17.005C92.6473 17.1663 92.8291 17.3477 92.9705 17.4887C93.0715 17.65 93.1321 17.8515 93.1321 18.1135C93.1321 18.8593 92.5665 19.2221 91.4152 19.2221C90.9708 19.2221 90.5062 19.1415 89.9609 18.9601C89.4155 18.7787 88.9105 18.5166 88.4864 18.2143L88.3854 18.1337V20.6934L88.446 20.7135C88.8297 20.8949 89.2943 21.0159 89.8599 21.157C90.4254 21.2577 90.9304 21.3384 91.3748 21.3384C92.7281 21.3384 93.839 21.036 94.6268 20.3709C95.4347 19.726 95.8589 18.8996 95.8589 17.8314C95.8589 17.0856 95.6569 16.4205 95.2125 15.9166C94.6268 15.4329 93.8996 14.9291 92.8493 14.526V14.526ZM102.787 9.64843C100.949 9.64843 99.4744 10.1926 98.4443 11.2608C97.4142 12.3291 96.889 13.8004 96.889 15.6546C96.889 17.388 97.4142 18.7988 98.4241 19.8267C99.434 20.8345 100.808 21.3585 102.524 21.3585C104.322 21.3585 105.756 20.8143 106.786 19.726C107.837 18.6376 108.342 17.1864 108.342 15.3926C108.342 13.619 107.857 12.2081 106.867 11.1802C105.918 10.1523 104.524 9.64843 102.787 9.64843V9.64843ZM104.867 18.2345C104.383 18.8593 103.615 19.1616 102.666 19.1616C101.696 19.1616 100.949 18.8593 100.404 18.1942C99.8582 17.5694 99.5956 16.6624 99.5956 15.5135C99.5956 14.3244 99.8784 13.4174 100.404 12.7725C100.949 12.1275 101.696 11.805 102.646 11.805C103.555 11.805 104.302 12.1073 104.827 12.7322C105.352 13.357 105.635 14.2639 105.635 15.4531C105.635 16.6624 105.372 17.6097 104.867 18.2345V18.2345ZM122.38 12.0469V9.89029H119.734V6.58487L119.653 6.60502L117.148 7.35076L117.088 7.37091V9.89029H113.129V8.47944C113.129 7.83448 113.29 7.3306 113.573 7.00812C113.856 6.68564 114.28 6.5244 114.805 6.5244C115.169 6.5244 115.553 6.60502 115.977 6.78642L116.078 6.84688V4.56936L116.017 4.54921C115.654 4.42828 115.169 4.34766 114.543 4.34766C113.755 4.34766 113.068 4.52905 112.442 4.83138C111.816 5.17401 111.351 5.63758 111.008 6.26238C110.665 6.86704 110.483 7.55231 110.483 8.33835V9.89029H108.645V12.0267H110.483V21.0562H113.129V12.0469H117.088V17.7911C117.088 20.1492 118.199 21.3384 120.42 21.3384C120.784 21.3384 121.168 21.2779 121.531 21.2174C121.915 21.1368 122.198 21.036 122.36 20.9554L122.38 20.9353V18.7787L122.279 18.8593C122.117 18.9601 121.976 19.0407 121.733 19.1011C121.531 19.1616 121.35 19.1818 121.208 19.1818C120.683 19.1818 120.319 19.0608 120.057 18.7585C119.815 18.4763 119.693 18.0128 119.693 17.3275V12.0469H122.38V12.0469Z" fill="#777777"/>
<path d="M0.399902 0.296875H12.7817V12.6519H0.399902V0.296875Z" fill="#777777"/>
<path d="M14.0745 0.296875H26.4563V12.6519H14.0745V0.296875Z" fill="#777777"/>
<path d="M0.399902 13.9414H12.7817V26.2964H0.399902V13.9414Z" fill="#777777"/>
<path d="M14.0745 13.9414H26.4563V26.2964H14.0745V13.9414Z" fill="#777777"/>
</svg>
