<svg width="112" height="27" viewBox="0 0 112 27" fill="none" xmlns="http://www.w3.org/2000/svg">
<path d="M39.7019 9.54489V11.0184H39.7469C40.2771 10.2295 41.1573 9.3004 43.1083 9.3004C44.6262 9.3004 45.7905 10.073 46.2896 11.24H46.3346C46.7608 10.65 47.2495 10.2034 47.797 9.88718C48.445 9.51229 49.1658 9.29714 50.0738 9.29714C52.1287 9.29714 53.9481 10.6337 53.9481 14.0044V20.3971H50.8153V14.4511C50.8153 12.7429 50.1985 11.7551 48.9163 11.7551C47.9772 11.7551 47.2945 12.3484 47.0346 13.0786C46.9445 13.3296 46.9029 13.6719 46.9029 13.9588V20.4004H43.7702V14.2098C43.7702 12.7592 43.1776 11.7518 41.9128 11.7518C40.9009 11.7518 40.2667 12.5016 40.0068 13.1438C39.8959 13.4177 39.8613 13.7339 39.8613 14.0305V20.3971H36.7251V9.54489H39.7019ZM70.1175 9.54489V11.5921H70.2042C70.7794 10.0274 72.1448 9.3004 73.3438 9.3004C73.6453 9.3004 73.8116 9.32322 74.0542 9.36886V12.2115C73.7666 12.1724 73.4998 12.1333 73.1255 12.1333C71.7671 12.1333 70.821 12.8765 70.5819 14.0403C70.5299 14.2815 70.5126 14.5423 70.5126 14.8422V20.4004H67.2967V9.54489H70.1175ZM78.4206 5.94922V9.3656H81.1375V12.13H78.4206V16.2081C78.4206 17.5284 78.7775 18.1673 79.8379 18.1673C80.337 18.1673 80.7043 18.1087 81.0231 18.0337L81.0647 20.3254C80.6384 20.4754 79.7305 20.6384 78.8087 20.6384C77.7241 20.6384 76.8196 20.283 76.2686 19.7321C75.6379 19.1029 75.3468 18.0728 75.3468 16.6058V5.94922H78.4206ZM34.5419 20.3971H31.4231V5.94922H34.5419V20.3971ZM26.225 16.5211C26.225 16.7199 26.2077 16.9286 26.1487 17.1079C25.9062 17.8609 25.0779 18.4966 24.0453 18.4966C23.1824 18.4966 22.4962 18.0369 22.4962 17.0622C22.4962 15.5725 24.2428 15.1584 26.2284 15.1682V16.5211H26.225ZM29.3404 13.9229C29.3404 11.4617 28.2245 9.3004 24.4507 9.3004C22.5136 9.3004 20.9749 9.81221 20.1363 10.2686L20.7497 12.2441C21.5155 11.7877 22.7388 11.4128 23.8962 11.4128C25.8126 11.4096 26.1245 12.4332 26.1245 13.0884V13.2449C21.9487 13.2384 19.3115 14.5977 19.3115 17.3687C19.3115 19.0606 20.6526 20.6449 22.9883 20.6449C24.4265 20.6449 25.6255 20.107 26.3463 19.2431H26.4156C26.4156 19.2431 26.8938 21.1176 29.5206 20.4004C29.3819 19.618 29.3369 18.7867 29.3369 17.7859V13.9229H29.3404ZM3.64454 5.94922C3.96682 7.47811 4.88168 11.9181 4.88168 11.9181C5.26634 13.7437 5.61981 15.6572 5.88665 17.1698H5.93516C6.19507 15.5627 6.60398 14.0403 7.04062 12.1561L8.58271 5.94922H11.9961L13.4377 12.3158C13.8154 14.0859 14.1169 15.4518 14.356 17.0981H14.4011C14.661 15.4355 15.0006 14.0142 15.3714 12.1952L16.7576 5.94922H20.0323L15.9744 20.3971C13.3892 20.9285 12.3981 19.9505 12.0446 18.3988C11.6912 16.8438 10.9981 13.8871 10.9981 13.8871C10.6412 12.2669 10.3639 11.1259 10.1699 9.4634H10.1213C9.84411 11.1096 9.55302 12.2637 9.12332 13.8838L7.42181 20.4004C4.78119 20.8959 3.86633 20.1624 3.36038 18.1706C2.92374 16.4657 0.199951 5.95248 0.199951 5.95248H3.64454V5.94922ZM62.0986 16.5211C62.0986 16.7199 62.0813 16.9286 62.0224 17.1079C61.7798 17.8609 60.9516 18.4966 59.9189 18.4966C59.056 18.4966 58.3699 18.0369 58.3699 17.0622C58.3699 15.5725 60.1164 15.1584 62.1021 15.1682V16.5211H62.0986ZM65.214 13.9229C65.214 11.4617 64.0982 9.3004 60.3244 9.3004C58.3872 9.3004 56.8486 9.81221 56.01 10.2686L56.6233 12.2441C57.3892 11.7877 58.6125 11.4128 59.7699 11.4128C61.6828 11.4096 61.9981 12.4332 61.9981 13.0884V13.2449C57.8258 13.2384 55.1887 14.5977 55.1887 17.3687C55.1887 19.0606 56.5332 20.6449 58.8654 20.6449C60.3001 20.6449 61.5026 20.107 62.2199 19.2431H62.2927C62.2927 19.2431 62.7709 21.1176 65.3977 20.4004C65.2591 19.618 65.214 18.7867 65.214 17.7859V13.9229Z" fill="#777777"/>
<path d="M93.7802 15.421C94.0876 15.9486 94.0669 16.5375 93.7387 16.8064L88.0669 20.7245C87.4762 21.0615 86.5919 20.653 86.091 19.7986C85.5867 18.9408 85.6765 17.9842 86.2672 17.6472L92.547 14.7674C92.9408 14.6176 93.4728 14.8934 93.7802 15.421ZM101.245 15.421C101.556 14.8934 102.084 14.621 102.478 14.764L108.761 17.6438C109.352 17.9808 109.438 18.9374 108.937 19.7952C108.433 20.6496 107.545 21.0547 106.958 20.7211L101.286 16.803C100.962 16.5375 100.937 15.9452 101.245 15.421ZM97.5108 17.5451C98.1291 17.5451 98.6369 17.8583 98.7059 18.2702L99.3173 25.0714C99.3173 25.7454 98.5194 26.2969 97.5142 26.2969C96.5125 26.2969 95.7111 25.7454 95.7111 25.0714L96.3191 18.2702C96.3881 17.8583 96.8959 17.5451 97.5108 17.5451ZM101.286 9.79072L106.958 5.86928C107.545 5.53228 108.433 5.93736 108.937 6.79517C109.438 7.65299 109.352 8.60952 108.761 8.94652L102.478 11.8297C102.084 11.9727 101.552 11.7004 101.245 11.1728C100.937 10.6451 100.962 10.0562 101.286 9.79072ZM92.547 11.8297L86.2672 8.94652C85.68 8.60952 85.5902 7.65299 86.091 6.79517C86.5919 5.93736 87.4796 5.53228 88.0669 5.86928L93.7387 9.79072C94.0669 10.0528 94.0876 10.6451 93.7802 11.1728C93.4728 11.7004 92.9408 11.9727 92.547 11.8297ZM96.3191 8.32358L95.7111 1.52233C95.7111 0.848328 96.509 0.296875 97.5142 0.296875C98.5194 0.296875 99.3173 0.848328 99.3173 1.52233L98.7059 8.32358C98.6369 8.73207 98.1291 9.04864 97.5108 9.04864C96.8959 9.04864 96.3881 8.73207 96.3191 8.32358ZM110.471 20.6972V20.527H110.627C110.678 20.527 110.713 20.5611 110.713 20.6121C110.713 20.6598 110.678 20.6972 110.627 20.6972H110.471ZM110.343 21.007C110.343 21.024 110.357 21.041 110.378 21.041H110.443C110.461 21.041 110.478 21.024 110.478 21.007V20.813H110.585L110.671 21.0172C110.678 21.0308 110.689 21.041 110.703 21.041H110.782C110.806 21.041 110.823 21.0172 110.813 20.9934C110.782 20.9321 110.751 20.8674 110.72 20.8028C110.772 20.7857 110.851 20.7347 110.851 20.6121C110.851 20.4828 110.744 20.4079 110.637 20.4079H110.378C110.361 20.4079 110.343 20.4249 110.343 20.4419V21.007ZM110.064 20.7245C110.064 20.4487 110.291 20.2241 110.571 20.2241C110.851 20.2241 111.079 20.4453 111.079 20.7245C111.079 21.0002 110.855 21.2249 110.571 21.2249C110.288 21.2249 110.064 21.0002 110.064 20.7245ZM109.943 20.7245C109.943 21.0649 110.222 21.344 110.571 21.344C110.917 21.344 111.2 21.0649 111.2 20.7245C111.2 20.3841 110.917 20.1049 110.571 20.1049C110.222 20.1049 109.943 20.3841 109.943 20.7245Z" fill="#777777"/>
</svg>
